<?xml version="1.0" encoding="utf-8"?>
<!-- Generator: Adobe Illustrator 23.1.1, SVG Export Plug-In . SVG Version: 6.00 Build 0)  -->
<!DOCTYPE svg PUBLIC "-//W3C//DTD SVG 1.1//EN" "http://www.w3.org/Graphics/SVG/1.1/DTD/svg11.dtd" [
	<!ENTITY ns_extend "http://ns.adobe.com/Extensibility/1.0/">
	<!ENTITY ns_ai "http://ns.adobe.com/AdobeIllustrator/10.0/">
	<!ENTITY ns_graphs "http://ns.adobe.com/Graphs/1.0/">
	<!ENTITY ns_vars "http://ns.adobe.com/Variables/1.0/">
	<!ENTITY ns_imrep "http://ns.adobe.com/ImageReplacement/1.0/">
	<!ENTITY ns_sfw "http://ns.adobe.com/SaveForWeb/1.0/">
	<!ENTITY ns_custom "http://ns.adobe.com/GenericCustomNamespace/1.0/">
	<!ENTITY ns_adobe_xpath "http://ns.adobe.com/XPath/1.0/">
]>
<svg version="1.1"
	 id="svg2" xmlns:x="&ns_extend;" xmlns:i="&ns_ai;" xmlns:graph="&ns_graphs;" inkscape:version="0.48.5 r10040" sodipodi:docname="Logo JO d&apos;été - Paris 2024.svg" xmlns:cc="http://creativecommons.org/ns#" xmlns:dc="http://purl.org/dc/elements/1.1/" xmlns:inkscape="http://www.inkscape.org/namespaces/inkscape" xmlns:rdf="http://www.w3.org/1999/02/22-rdf-syntax-ns#" xmlns:sodipodi="http://sodipodi.sourceforge.net/DTD/sodipodi-0.dtd" xmlns:svg="http://www.w3.org/2000/svg"
	 xmlns="http://www.w3.org/2000/svg" xmlns:xlink="http://www.w3.org/1999/xlink" x="0px" y="0px" viewBox="0 0 1100.2 540.2"
	 style="enable-background:new 0 0 1100.2 540.2;" xml:space="preserve">
<style type="text/css">
	.st0{fill:#FFFFFF;stroke:#231F20;stroke-width:3.15;stroke-miterlimit:5;}
	.st1{fill:none;stroke:#231F20;stroke-width:1.05;stroke-miterlimit:5;}
	.st2{fill:none;stroke:#231F20;stroke-width:2.1;stroke-miterlimit:5;}
	.st3{fill:#FFFFFF;}
	.st4{fill:#FFFFFF;stroke:#231F20;stroke-width:2.1;stroke-miterlimit:5;}
	.st5{fill:#231F20;}
	.st6{fill:#FFFFFF;stroke:#231F20;stroke-width:2.1;stroke-linecap:round;stroke-miterlimit:5;}
	.st7{fill:none;stroke:#231F20;stroke-width:2.1;stroke-linecap:round;stroke-miterlimit:5;}
	.st8{fill:none;stroke:#231F20;stroke-width:1.05;stroke-linecap:round;stroke-miterlimit:5;}
	.st9{fill:#FFFFFF;stroke:#231F20;stroke-width:1.05;stroke-miterlimit:5;}
	.st10{fill:none;stroke:#231F20;stroke-width:0.7105;}
	.st11{fill:none;stroke:#231F20;stroke-width:2.1;stroke-linecap:round;stroke-miterlimit:7.5;}
	.st12{fill:none;stroke:#231F20;stroke-width:2.1;stroke-linecap:round;stroke-miterlimit:6.25;}
	.st13{fill:#FFFFFF;stroke:#231F20;stroke-width:1.68;stroke-linecap:round;stroke-miterlimit:5;}
	.st14{fill:none;stroke:#231F20;stroke-width:1.68;stroke-linecap:round;stroke-miterlimit:5;}
	.st15{fill:#FFFFFF;stroke:#FFFFFF;stroke-width:0.84;stroke-miterlimit:5;}
	.st16{fill:#00ADEF;stroke:#FFFFFF;stroke-width:1.05;stroke-miterlimit:5;}
	.st17{fill:#231F20;stroke:#231F20;stroke-width:2.1;stroke-linecap:round;stroke-miterlimit:5;}
	.st18{fill:#231F20;stroke:#231F20;stroke-width:1.05;stroke-linecap:round;stroke-miterlimit:5;}
	.st19{fill:#FFFFFF;stroke:#FFFFFF;stroke-width:1.05;stroke-miterlimit:5;}
	.st20{fill:none;stroke:#000000;stroke-width:1.05;}
</style>
<metadata  id="metadata8">
	<rdf:RDF>
		<cc:Work  rdf:about="">
			<dc:format>image/svg+xml</dc:format>
			<dc:type  rdf:resource="http://purl.org/dc/dcmitype/StillImage"></dc:type>
			<dc:title></dc:title>
		</cc:Work>
	</rdf:RDF>
	<sfw  xmlns="&ns_sfw;">
		<slices></slices>
		<sliceSourceBounds  bottomLeftOrigin="true" height="540.2" width="1100.2" x="-471.5" y="-232.3"></sliceSourceBounds>
	</sfw>
</metadata>
<sodipodi:namedview  bordercolor="#666666" borderopacity="1" fit-margin-bottom="0" fit-margin-left="0" fit-margin-right="0" fit-margin-top="0" gridtolerance="10" guidetolerance="10" id="namedview4" inkscape:current-layer="g10" inkscape:cx="96.344453" inkscape:cy="73.807254" inkscape:guide-bbox="true" inkscape:object-nodes="true" inkscape:object-paths="true" inkscape:pageopacity="0" inkscape:pageshadow="2" inkscape:snap-global="false" inkscape:window-height="659" inkscape:window-maximized="1" inkscape:window-width="1280" inkscape:window-x="0" inkscape:window-y="0" inkscape:zoom="5.6568543" objecttolerance="10" pagecolor="#ffffff" showgrid="false" showguides="true">
	</sodipodi:namedview>
<g id="g10" transform="matrix(1.25,0,0,-1.25,-332.67181,512.45825)" inkscape:groupmode="layer" inkscape:label="The_historic_olympic_collection_style_guide">
	<path id="path6729" inkscape:connector-curvature="0" sodipodi:nodetypes="sssssssssccssss" d="M279.7,324.4
		c-7.2,21.7-9.4,26.8-12,28.1c-2.8,1.5-2.2,1.6,5.5,1.5c4.8-0.1,7.7-0.4,6.4-0.7c-1.3-0.3-2.3-1.1-2.3-1.7
		c0-2.1,12.4-39.6,13.5-40.8c1-1.1,2.1,1.8,5.1,14.6c0.7,2.9,2.6,10.1,4.3,15.9c2.5,8.8,2.7,10.7,1.1,11.7c-1.2,0.7,0.8,0.9,7.9,0.9
		c6.6-0.2-0.1-1.9-1-1.7c-3.6,0-3.1,1.2-9.4-22.1c-2.3-8.5-5.2-19.2-6.5-23.8c-1.3-4.6-2.6-8.4-3-8.4
		C288.8,297.9,284.5,309.8,279.7,324.4z"/>
	<g id="g32">
		<g>
			<g id="g34">
				<g id="g40" transform="translate(333.024,404.0233)">
					<path id="path42" inkscape:connector-curvature="0" sodipodi:nodetypes="cccccccccccccccccccccsc" class="st0" d="M401.3-34.8
						c0,0,141.3-0.4,144.5-0.1c3.2,0.3,14.1,3.8,19.2,10.3l15-10.8c0,0-5.6-4.7-7.7-11.4c0,0-0.8-103.1-1.8-111.6
						c-0.6-4.8-4.8-41.6-15.7-72.1c-8.5-23.8-18.7-45.1-22-50.6c-3.5-6-17.4-30.7-33.8-50.3c-18.1-21.7-37.1-38.9-37.1-38.9
						s-16.4-14.2-35.3-27.4c-22.4-15.7-49.2-26.5-49.4-26.6c-0.1,0.2-27,10.9-49.4,26.6c-18.9,13.2-35.3,27.4-35.3,27.4
						s-19,17.2-37.1,39c-16.3,19.6-30.2,44.3-33.8,50.3c-3.2,5.5-13.4,26.8-22,50.6c-10.9,30.5-15.1,67.3-15.7,72.1
						c-1.1,8.4-1.8,111.6-1.8,111.6c-2.1,6.7-7.7,11.4-7.7,11.4l15,10.8c5.1-6.5,15.9-10,19.2-10.3c3.2-0.3,146,0,146,0"/>
				</g>
				<g id="g44" transform="translate(329.6001,402.3893)">
					<path id="path46" inkscape:connector-curvature="0" sodipodi:nodetypes="cccccscsccccc" class="st0" d="M380.8-44.6L564.7-45
						l0.6-89.9c0,0-2.7-55.8-15.1-88.4c-12.6-33-15.5-42.6-27.9-62.2c-5.5-8.7-32.8-53.1-73.1-84.8s-68.4-42.2-68.4-42.2
						s-28.1,10.5-68.4,42.2s-67.6,76.2-73.1,84.8c-12.4,19.5-15.3,29.2-27.9,62.2c-12.4,32.6-15.1,88.4-15.1,88.4l0.6,89.9
						L380.8-44.6"/>
				</g>
				<g id="g48" transform="translate(326.3777,404.0125)">
				</g>
				<g id="g52" transform="translate(329.5921,402.3893)">
				</g>
			</g>
		</g>
	</g>
	<g id="g4495" transform="translate(303.27641,394.40015)">
		<g id="g5972">
			<path id="path58" inkscape:connector-curvature="0" class="st1" d="M222.3-40.8l368.1-0.7"/>
			<path id="path62" inkscape:connector-curvature="0" class="st1" d="M222.3-45.2l368.1-0.7"/>
			<path id="path66" inkscape:connector-curvature="0" class="st1" d="M222.3-49.5l368.1-0.7"/>
			<path id="path70" inkscape:connector-curvature="0" class="st1" d="M222.3-53.8l368.1-0.7"/>
			<path id="path74" inkscape:connector-curvature="0" class="st1" d="M222.3-58.1l368.1-0.7"/>
			<path id="path78" inkscape:connector-curvature="0" class="st1" d="M222.3-62.4l368.1-0.7"/>
			<path id="path82" inkscape:connector-curvature="0" class="st1" d="M222.3-66.7l368.1-0.7"/>
			<path id="path86" inkscape:connector-curvature="0" class="st1" d="M222.3-71l368.1-0.7"/>
			<path id="path90" inkscape:connector-curvature="0" class="st1" d="M222.3-75.3L590.5-76"/>
			<path id="path94" inkscape:connector-curvature="0" class="st1" d="M222.3-79.7l368.1-0.7"/>
			<path id="path98" inkscape:connector-curvature="0" class="st1" d="M222.3-84l368.1-0.7"/>
			<path id="path102" inkscape:connector-curvature="0" class="st1" d="M222.3-88.3l368.1-0.7"/>
			<path id="path110" inkscape:connector-curvature="0" class="st1" d="M222.3-101.2l368.1-0.7"/>
			<path id="path114" inkscape:connector-curvature="0" class="st1" d="M222.3-105.5l368.1-0.7"/>
			<path id="path118" inkscape:connector-curvature="0" class="st1" d="M222.3-96.9l368.1-0.7"/>
			<path id="path4497" inkscape:connector-curvature="0" class="st1" d="M222.8-92.6L591-93.2"/>
		</g>
	</g>
	<g id="g5953" transform="matrix(0.95673125,-0.29097306,0.29097306,0.95673125,312.75281,377.40397)">
		<path id="path5955" inkscape:connector-curvature="0" class="st2" d="M324.2-104.7c0,0-3.1,9.8,10.4,13.2"/>
	</g>
	<g id="g28" transform="translate(329.8401,405.7784)">
		<path id="path30" inkscape:connector-curvature="0" class="st0" d="M382.2-24.3l6.2-0.1l-1-9.1l7.4-0.1l1.6,9.6L406-24l-2.9-24
			h-43.7L356-24.5l10.4,0l0.9-9.2l6.1,0.2v9L382.2-24.3z"/>
	</g>
	<g id="g56" transform="translate(303.2057,401.7876)">
	</g>
	<g id="g60" transform="translate(303.2057,401.1714)">
	</g>
	<g id="g64" transform="translate(303.2057,400.5554)">
	</g>
	<g id="g68" transform="translate(303.2057,399.9392)">
	</g>
	<g id="g72" transform="translate(303.2057,399.323)">
	</g>
	<g id="g76" transform="translate(303.2057,398.7069)">
	</g>
	<g id="g80" transform="translate(303.2057,398.0908)">
	</g>
	<g id="g84" transform="translate(303.2057,397.4746)">
	</g>
	<g id="g88" transform="translate(303.2057,396.8586)">
	</g>
	<g id="g92" transform="translate(303.2057,396.2424)">
	</g>
	<g id="g96" transform="translate(303.2057,395.6262)">
	</g>
	<g id="g100" transform="translate(303.2057,395.0102)">
	</g>
	<g id="g108" transform="translate(303.2057,393.1618)">
	</g>
	<g id="g112" transform="translate(303.2057,392.5456)">
	</g>
	<g id="g116" transform="translate(303.2057,393.7778)">
	</g>
	<g id="g128" transform="translate(321.7608,395.0392)">
		<path id="path130" inkscape:connector-curvature="0" class="st3" d="M333.7-88.7l154.6,26c0,0-63.4-17.6-90.7-58.8
			c-27.3-41.2-39.1-92.4,5-126.4c21.7-16.8-11.1,11.4-30.2,8.8c-9.2-1.3-7.6-14.3-7.6-14.3s-48.7,47.9-52.1,84.8
			c-3.4,37,6.3,55.9,9.2,61.3C324.9-101.7,333.7-88.7,333.7-88.7"/>
	</g>
	<g id="g132" transform="translate(321.7608,395.0392)">
		<path id="path134" inkscape:connector-curvature="0" class="st2" d="M333.7-88.7l154.6,26c0,0-63.4-17.6-90.7-58.8
			c-27.3-41.2-39.1-92.4,5-126.4c21.7-16.8-11.1,11.4-30.2,8.8c-9.2-1.3-7.6-14.3-7.6-14.3s-48.7,47.9-52.1,84.8
			c-3.4,37,6.3,55.9,9.2,61.3C324.9-101.7,333.7-88.7,333.7-88.7z"/>
	</g>
	<g id="g136" transform="translate(335.6827,389.2722)">
		<path id="path138" inkscape:connector-curvature="0" class="st3" d="M417.3-123.3l71.4,20.2c0,0-41.6-16.4-54.2-36.5
			c-12.6-20.2-19.6-31.5-3.4-48.7c7.1-7.6,9.2-5.5,9.2-5.5h-17.2c0,0-21.6,15.2-25.2,27.3c-3.8,12.6-1,22.1,10.9,36.5
			C414.1-123.7,417.3-123.3,417.3-123.3"/>
	</g>
	<g id="g140" transform="translate(335.6827,389.2722)">
		<path id="path142" inkscape:connector-curvature="0" class="st2" d="M417.3-123.3l71.4,20.2c0,0-41.6-16.4-54.2-36.5
			c-12.6-20.2-19.6-31.5-3.4-48.7c7.1-7.6,9.2-5.5,9.2-5.5h-17.2c0,0-21.6,15.2-25.2,27.3c-3.8,12.6-1,22.1,10.9,36.5
			C414.1-123.7,417.3-123.3,417.3-123.3z"/>
	</g>
	<g id="g144" transform="translate(335.3407,379.1792)">
		<path id="path146" inkscape:connector-curvature="0" class="st2" d="M415.2-183.9h64.4l-0.3-17.6l-64.1-0.3V-183.9z"/>
	</g>
	<g id="g148" transform="translate(335.4209,378.5793)">
		<path id="path150" inkscape:connector-curvature="0" class="st2" d="M415.7-187.5l62.7-0.3"/>
	</g>
	<g id="g152" transform="translate(335.3407,377.3793)">
		<path id="path154" inkscape:connector-curvature="0" class="st2" d="M415.2-194.7h63.8"/>
	</g>
	<g id="g156" transform="translate(337.3008,378.5788)">
		<path id="path158" inkscape:connector-curvature="0" class="st2" d="M427-187.5l0.3-7.6"/>
	</g>
	<g id="g160" transform="translate(339.1008,378.6191)">
		<path id="path162" inkscape:connector-curvature="0" class="st2" d="M437.8-187.2v-7.8"/>
	</g>
	<g id="g164" transform="translate(340.9008,378.6191)">
		<path id="path166" inkscape:connector-curvature="0" class="st2" d="M448.6-187.2l0.6-7.8"/>
	</g>
	<g id="g168" transform="translate(342.5407,378.5793)">
		<path id="path170" inkscape:connector-curvature="0" class="st2" d="M458.4-187.5v-7.8"/>
	</g>
	<g id="g172" transform="translate(305.9808,384.7792)">
		<path id="path174" inkscape:connector-curvature="0" class="st2" d="M239.1-150.3l64.1-40.3"/>
	</g>
	<g id="g176" transform="translate(314.5408,385.4593)">
		<path id="path178" inkscape:connector-curvature="0" class="st4" d="M290.4-146.2v-55.2l48.9-0.4v10.8l-48.9,0.8"/>
	</g>
	<g id="g180" transform="translate(314.5408,378.3792)">
		<path id="path182" inkscape:connector-curvature="0" class="st4" d="M290.4-188.7l49.1,0.1"/>
	</g>
	<path id="path184" inkscape:connector-curvature="0" class="st5" d="M606.9,196.4h-2v42.8h2V196.4z"/>
	<path id="path186" inkscape:connector-curvature="0" class="st5" d="M787.5,328.9h-1.7v6.2h1.7V328.9z"/>
	<path id="path188" inkscape:connector-curvature="0" class="st5" d="M785.6,275.9h2.5v47.9h-2.5V275.9z"/>
	<g id="g190" transform="translate(340.3008,389.1776)">
		<path id="path192" inkscape:connector-curvature="0" class="st5" d="M445-123.9l-2-69.1l5-0.3l-0.3,70.8L445-123.9z"/>
	</g>
	<g id="g194" transform="translate(328.9209,375.2393)">
		<path id="path196" inkscape:connector-curvature="0" class="st2" d="M376.7-207.5l-0.1,81.1l-2.4-77.1L376.7-207.5z"/>
	</g>
	<g id="g198" transform="translate(329.3008,387.5792)">
		<path id="path200" inkscape:connector-curvature="0" class="st2" d="M379-133.5l0.8-92.2"/>
	</g>
	<g id="g202" transform="translate(329.2957,387.3393)">
		<path id="path204" inkscape:connector-curvature="0" class="st2" d="M378.9-134.9l0.8-89.6"/>
	</g>
	<g id="g206" transform="translate(329.2809,387.4593)">
		<path id="path208" inkscape:connector-curvature="0" class="st2" d="M378.9-134.2l0.8-90.9"/>
	</g>
	<g id="g210" transform="translate(329.3008,387.7193)">
		<path id="path212" inkscape:connector-curvature="0" class="st2" d="M379-132.6l0.8-92.3"/>
	</g>
	<g id="g214" transform="translate(330.0009,388.8393)">
		<path id="path216" inkscape:connector-curvature="0" class="st2" d="M383.2-125.9l0.1-105.1"/>
	</g>
	<g id="g218" transform="translate(328.3809,385.5793)">
		<path id="path220" inkscape:connector-curvature="0" class="st2" d="M373.5-145.5L374-209"/>
	</g>
	<g id="g222" transform="translate(330.1808,389.2993)">
		<path id="path224" inkscape:connector-curvature="0" class="st2" d="M384.3-123.2l8.8-123.7"/>
	</g>
	<g id="g226" transform="translate(330.2208,389.0992)">
		<path id="path228" inkscape:connector-curvature="0" class="st2" d="M384.5-124.4l10.9-119"/>
	</g>
	<g id="g230" transform="translate(329.6001,388.2079)">
		<path id="path232" inkscape:connector-curvature="0" class="st2" d="M380.8-129.7c0,0,4.1,0.1,4.9,0.1"/>
	</g>
	<g id="g234" transform="translate(329.1009,387.2192)">
		<path id="path236" inkscape:connector-curvature="0" class="st2" d="M377.8-135.6l9.2,0.3"/>
	</g>
	<g id="g238" transform="translate(328.5009,385.8192)">
		<path id="path240" inkscape:connector-curvature="0" class="st2" d="M374.2-144l13.7,0.8"/>
	</g>
	<g id="g242" transform="translate(330.5808,384.5792)">
		<path id="path244" inkscape:connector-curvature="0" class="st2" d="M386.7-151.5l-16.2-0.3"/>
	</g>
	<g id="g246" transform="translate(328.4608,383.0593)">
		<path id="path248" inkscape:connector-curvature="0" class="st2" d="M373.9-160.6l14.3,0.6"/>
	</g>
	<g id="g250" transform="translate(328.5009,381.4192)">
		<path id="path252" inkscape:connector-curvature="0" class="st2" d="M374.2-170.4l15.4,0.6"/>
	</g>
	<g id="g254" transform="translate(328.6208,379.9792)">
		<path id="path256" inkscape:connector-curvature="0" class="st2" d="M374.9-179.1l14.6-0.3"/>
	</g>
	<g id="g258" transform="translate(328.3809,378.3792)">
		<path id="path260" inkscape:connector-curvature="0" class="st2" d="M373.5-188.7l17.1-0.3"/>
	</g>
	<g id="g262" transform="translate(328.2208,376.6991)">
		<path id="path264" inkscape:connector-curvature="0" class="st2" d="M372.5-198.8l19.9-0.6"/>
	</g>
	<g id="g266" transform="translate(329.0208,375.1391)">
		<path id="path268" inkscape:connector-curvature="0" class="st2" d="M377.3-208.1h15.1"/>
	</g>
	<g id="g270" transform="translate(304.1409,392.5792)">
	</g>
	<g id="g274" transform="translate(304.8399,392.5792)">
	</g>
	<g id="g278" transform="translate(305.579,392.5792)">
	</g>
	<g id="g282" transform="translate(306.2781,392.5792)">
	</g>
	<g id="g286" transform="translate(306.9771,392.5392)">
	</g>
	<g id="g290" transform="translate(307.6763,392.5392)">
	</g>
	<g id="g294" transform="translate(308.3753,392.5392)">
	</g>
	<g id="g298" transform="translate(309.0745,392.5792)">
	</g>
	<g id="g302" transform="translate(309.7736,392.5392)">
	</g>
	<g id="g306" transform="translate(310.4726,392.5392)">
	</g>
	<g id="g310" transform="translate(311.1718,392.5792)">
	</g>
	<g id="g314" transform="translate(311.8708,392.5792)">
	</g>
	<g id="g318" transform="translate(312.5898,392.5392)">
	</g>
	<g id="g322" transform="translate(313.269,392.4992)">
	</g>
	<g id="g326" transform="translate(313.9681,392.4992)">
	</g>
	<g id="g330" transform="translate(314.6672,392.4592)">
	</g>
	<g id="g334" transform="translate(315.3663,392.5392)">
	</g>
	<g id="g338" transform="translate(316.0654,392.4992)">
	</g>
	<g id="g342" transform="translate(316.7644,392.4992)">
	</g>
	<g id="g346" transform="translate(317.4636,392.4992)">
	</g>
	<g id="g350" transform="translate(318.1626,392.4992)">
	</g>
	<g id="g354" transform="translate(318.8417,392.4992)">
	</g>
	<g id="g358" transform="translate(318.9808,382.2193)">
	</g>
	<g id="g362" transform="translate(319.7408,380.2592)">
	</g>
	<g id="g366" transform="translate(319.5808,392.4992)">
	</g>
	<g id="g370" transform="translate(329.6001,409.8466)">
		<path id="path372" inkscape:connector-curvature="0" class="st2" d="M380.8,0.1v-27.4"/>
	</g>
	<path id="path5992" inkscape:connector-curvature="0" class="st3" d="M710.4,403.5l-15.8-10.1l3.2-10.8l12.4,10.2L710.4,403.5z"/>
	<g id="g374" transform="translate(327.5826,405.7534)">
		<path id="path376" inkscape:connector-curvature="0" class="st4" d="M368.7-24.4L382.6-13L368.7-24.4l-11.2-0.1l1.1-5.9
			l-22.7-17.1c0,0-25.5-19.6-38.6-27.2c-12.8-7.4-14.6-2.5-27.4-1.4c-12.9,1.1-10.9,0.8-18.5,0.6s-14.8-3.6-12.6-3.4
			c2.2,0.3,6.2,0.3,12.6-1.4c6.4-1.7,10.4-2.5,15.7-1.7c5.3,0.8,9.8,5.6,17.9,10.6c8.1,5,11.2,8.4,27.7,21.8
			C329.2-36,382.8-2.3,382.8-2.3"/>
	</g>
	<g id="g378" transform="translate(330.6609,390.0592)">
		<path id="path380" inkscape:connector-curvature="0" class="st2" d="M387.1-118.6V-161"/>
	</g>
	<g id="g382" transform="translate(331.3762,391.1392)">
		<path id="path384" inkscape:connector-curvature="0" class="st2" d="M391.4-112.1L391.2-218"/>
	</g>
	<g id="g386" transform="translate(332.0514,391.8992)">
	</g>
	<g id="g390" transform="translate(332.7468,392.5392)">
	</g>
	<g id="g394" transform="translate(332.8209,383.4087)">
	</g>
	<g id="g398" transform="translate(333.4421,392.5392)">
	</g>
	<g id="g402" transform="translate(333.4208,382.1792)">
	</g>
	<g id="g406" transform="translate(334.1374,392.4992)">
	</g>
	<g id="g410" transform="translate(334.1008,381.3793)">
	</g>
	<g id="g414" transform="translate(334.8127,392.5392)">
	</g>
	<g id="g418" transform="translate(335.528,392.4992)">
	</g>
	<g id="g422" transform="translate(336.2232,392.5392)">
	</g>
	<g id="g426" transform="translate(336.9186,392.5392)">
	</g>
	<g id="g430" transform="translate(337.6137,392.4592)">
	</g>
	<g id="g434" transform="translate(338.3091,392.4592)">
	</g>
	<g id="g438" transform="translate(339.0045,392.4992)">
	</g>
	<g id="g442" transform="translate(339.6996,392.4592)">
	</g>
	<g id="g446" transform="translate(340.3951,392.5392)">
	</g>
	<g id="g450" transform="translate(341.0902,392.5392)">
	</g>
	<g id="g454" transform="translate(341.8127,392.4592)">
	</g>
	<g id="g458" transform="translate(342.475,392.5792)">
	</g>
	<g id="g462" transform="translate(343.1975,392.4594)">
	</g>
	<g id="g466" transform="translate(343.2228,390.9794)">
	</g>
	<g id="g470" transform="translate(342.5288,387.5393)">
	</g>
	<g id="g474" transform="translate(341.8348,390.1793)">
	</g>
	<g id="g478" transform="translate(341.1408,387.4994)">
	</g>
	<g id="g482" transform="translate(343.9,392.4594)">
	</g>
	<g id="g486" transform="translate(343.9169,391.1793)">
	</g>
	<g id="g490" transform="translate(344.6024,392.4194)">
	</g>
	<g id="g494" transform="translate(345.3048,392.4594)">
	</g>
	<g id="g498" transform="translate(345.9988,392.4194)">
	</g>
	<g id="g502" transform="translate(346.6928,392.4194)">
	</g>
	<g id="g506" transform="translate(347.3868,392.4194)">
	</g>
	<g id="g510" transform="translate(348.0809,392.4594)">
	</g>
	<g id="g514" transform="translate(348.7749,392.4194)">
	</g>
	<g id="g518" transform="translate(349.4689,392.4993)">
	</g>
	<g id="g522" transform="translate(350.1628,392.4194)">
	</g>
	<g id="g526" transform="translate(350.8568,392.4594)">
	</g>
	<g id="g530" transform="translate(351.5508,392.4194)">
	</g>
	<g id="g534" transform="translate(352.2448,392.4194)">
	</g>
	<g id="g538" transform="translate(352.9389,392.3394)">
	</g>
	<g id="g542" transform="translate(353.6329,392.4194)">
	</g>
	<g id="g546" transform="translate(354.3269,392.4194)">
	</g>
	<g id="g550" transform="translate(355.0209,392.2994)">
	</g>
	<g id="g554" transform="translate(338.3808,387.2993)">
	</g>
	<g id="g558" transform="translate(339.1008,388.0994)">
	</g>
	<g id="g562" transform="translate(339.7408,388.6994)">
	</g>
	<g id="g566" transform="translate(334.8608,380.4993)">
	</g>
	<g id="g570" transform="translate(335.5408,379.8993)">
		<path id="path572" inkscape:connector-curvature="0" class="st4" d="M416.4-179.6v-4.2"/>
	</g>
	<g id="g574" transform="translate(321.2508,377.4893)">
		<path id="path576" inkscape:connector-curvature="0" sodipodi:nodetypes="czccscccccsc" class="st6" d="M330.7-194
			c5.4-9.7,4.6-17.7-1.2-14.4c-5.8,3.3-2.7,7.5,0,6.9c3.6-0.8,1,3.8,1,3.8c-10.1,4.5-23.5-24.7,24.4-36.5s74.8,10.1,74.8,10.1
			c7.6,6.2,3.6,13.7,3.6,13.7s-2.4-2.8-5.3-0.3c-5,4.3,1.1,9.4,6.2,9.8c6.4,0.6,17.4-13.7-1.1-29.7c-10-8.7-60.6-21.6-94.6-6.4
			c-36.4,16.2-20.2,42.6-20.2,42.6"/>
	</g>
	<path id="path578" inkscape:connector-curvature="0" class="st5" d="M706.7,140.2h-3v14.7h3V140.2z"/>
	<g id="g580" transform="translate(330.1008,371.2943)">
		<path id="path582" inkscape:connector-curvature="0" class="st5" d="M383.8-231.2h-4.2v13.1l4.2-1.4V-231.2z"/>
	</g>
	<g id="g584" transform="translate(349.1808,374.0193)">
		<path id="path586" inkscape:connector-curvature="0" class="st7" d="M498.3-214.8c0,0,4.5-1.4,6.7-5c2.2-3.6,4.2-7.3,4.5-9.2
			c0.3-2,0-3.9,0-3.9"/>
	</g>
	<g id="g588" transform="translate(348.1808,385.3394)">
		<path id="path590" inkscape:connector-curvature="0" class="st2" d="M492.3-146.9c0,0,3.4,6.4,7.6,7.8c4.2,1.4,7.3,1.7,9.2,1.1
			c2-0.6,3.1-2.2,3.1-2.2s3.1,5.3,9.5,6.4s10.6,1.1,13.4,0.3c2.8-0.8,7-2.2,7-2.2l3.6-3.1"/>
	</g>
	<g id="g592" transform="translate(309.3808,369.0593)">
		<path id="path594" inkscape:connector-curvature="0" class="st7" d="M259.5-244.6c0,0-10.6,9-6.7,16.5c3.9,7.6,3.4,5,3.4,5"/>
	</g>
	<g id="g596" transform="translate(309.4608,371.4993)">
		<path id="path598" inkscape:connector-curvature="0" class="st7" d="M259.9-230c0,0-19.4,14.5,2.8,30.8c13.7,10.1,26-5.3,26-5.3"
			/>
	</g>
	<g id="g600" transform="translate(311.5809,376.3793)">
		<path id="path602" inkscape:connector-curvature="0" class="st2" d="M272.7-200.7c0,0-3.1,9.8,10.4,13.2"/>
	</g>
	<g id="g604" transform="translate(316.0608,377.5394)">
		<path id="path606" inkscape:connector-curvature="0" class="st2" d="M299.5-193.7c0,0,14.5-24.3-8.4-31.9"/>
	</g>
	<g id="g608" transform="translate(314.7009,373.0994)">
		<path id="path610" inkscape:connector-curvature="0" class="st2" d="M291.4-220.4c0,0,8.1-14.6-6.4-26c0,0-0.8-14.3-20.4-16.2"/>
	</g>
	<g id="g612" transform="translate(310.3809,367.2194)">
		<path id="path614" inkscape:connector-curvature="0" class="st2" d="M265.5-255.6c2.6-0.8-1-3.2-6.2,3.6"/>
	</g>
	<g id="g616" transform="translate(336.7209,384.4394)">
		<path id="path618" inkscape:connector-curvature="0" class="st7" d="M423.5-152.3c0,0,4.6,12.2,19.7,10.2"/>
	</g>
	<g id="g620" transform="translate(338.9409,385.9793)">
		<path id="path622" inkscape:connector-curvature="0" class="st7" d="M436.8-143.1c0,0,9.2,17.1,27.4,9.8"/>
	</g>
	<g id="g624" transform="translate(343.0209,387.2594)">
		<path id="path626" inkscape:connector-curvature="0" class="st7" d="M461.3-135.4c0,0,10.4,4.2,18.2-10.1"/>
	</g>
	<g id="g628" transform="translate(345.3808,386.3793)">
		<path id="path630" inkscape:connector-curvature="0" class="st7" d="M475.5-140.7c0,0,16.2,1.7,22.1-13.4"/>
	</g>
	<g id="g632" transform="translate(348.6609,384.2993)">
		<path id="path634" inkscape:connector-curvature="0" class="st7" d="M495.1-153.2c0,0,16.8-5.9,10.6-26.6"/>
	</g>
	<g id="g636" transform="translate(349.8208,379.9793)">
		<path id="path638" inkscape:connector-curvature="0" class="st7" d="M502.1-179.1c0,0,9-9.2,5.3-22.4"/>
	</g>
	<g id="g640" transform="translate(350.7808,376.7393)">
		<path id="path642" inkscape:connector-curvature="0" class="st7" d="M507.9-198.5c0,0,5.3-7.6-2.8-18.5"/>
	</g>
	<g id="g644" transform="translate(345.8608,376.3394)">
		<path id="path646" inkscape:connector-curvature="0" class="st7" d="M478.3-200.9c0,0,19.6,2,25.2-16.8"/>
	</g>
	<g id="g648" transform="translate(307.3809,383.8994)">
	</g>
	<g id="g652" transform="translate(323.3409,395.3394)">
		<path id="path654" inkscape:connector-curvature="0" class="st2" d="M343.2-86.9l40,38.4"/>
	</g>
	<g id="g656" transform="translate(310.5009,382.0994)">
		<path id="path658" inkscape:connector-curvature="0" class="st2" d="M266.2-166.4l62.9,63.4"/>
	</g>
	<g id="g660" transform="translate(313.5408,380.0193)">
		<path id="path662" inkscape:connector-curvature="0" class="st2" d="M284.4-178.8l36.1,44.8"/>
	</g>
	<g id="g664" transform="translate(326.0208,395.7794)">
		<path id="path666" inkscape:connector-curvature="0" class="st2" d="M359.3-84.3l21.3,25.2"/>
	</g>
	<g id="g668" transform="translate(317.2209,379.2194)">
		<path id="path670" inkscape:connector-curvature="0" class="st2" d="M306.5-183.6l13.2,19"/>
	</g>
	<g id="g672" transform="translate(328.0608,396.1793)">
		<path id="path674" inkscape:connector-curvature="0" class="st2" d="M371.5-81.9l9,10.9"/>
	</g>
	<g id="g676" transform="translate(320.5408,376.0593)">
	</g>
	<g id="g680" transform="translate(321.9408,375.6194)">
	</g>
	<g id="g684" transform="translate(322.7008,375.4193)">
	</g>
	<g id="g688" transform="translate(323.3808,374.6193)">
	</g>
	<g id="g692" transform="translate(324.1408,373.7793)">
	</g>
	<g id="g696" transform="translate(324.9008,372.8594)">
	</g>
	<g id="g700" transform="translate(327.1008,373.5794)">
	</g>
	<g id="g704" transform="translate(327.8608,373.5393)">
	</g>
	<g id="g708" transform="translate(330.6609,372.6194)">
		<g id="g5100">
			<path id="path272" inkscape:connector-curvature="0" class="st1" d="M201.5-83.5l0.6-77.8"/>
			<path id="path276" inkscape:connector-curvature="0" class="st1" d="M206.4-83.5l0.6-99.1"/>
			<path id="path280" inkscape:connector-curvature="0" class="st1" d="M211.6-83.5v-112.6"/>
			<path id="path284" inkscape:connector-curvature="0" class="st1" d="M216.5-83.5v-126.6"/>
			<path id="path288" inkscape:connector-curvature="0" class="st1" d="M221.4-83.8v-137.8"/>
			<path id="path292" inkscape:connector-curvature="0" class="st1" d="M226.2-83.8v-149.8"/>
			<path id="path296" inkscape:connector-curvature="0" class="st1" d="M231.1-83.8v-149"/>
			<path id="path300" inkscape:connector-curvature="0" class="st1" d="M236-83.5l-0.1-121.2"/>
			<path id="path304" inkscape:connector-curvature="0" class="st1" d="M240.9-83.8v-116.5"/>
			<path id="path308" inkscape:connector-curvature="0" class="st1" d="M245.8-83.8v-114.5"/>
			<path id="path312" inkscape:connector-curvature="0" class="st1" d="M250.7-83.5l-0.2-113.1"/>
			<path id="path316" inkscape:connector-curvature="0" class="st1" d="M255.6-83.5v-103.9"/>
			<path id="path320" inkscape:connector-curvature="0" class="st1" d="M260.6-83.8l-0.3-101.9"/>
			<path id="path324" inkscape:connector-curvature="0" class="st8" d="M265.4-84.1v-99.1"/>
			<path id="path328" inkscape:connector-curvature="0" class="st1" d="M270.3-84.1V-174"/>
			<path id="path332" inkscape:connector-curvature="0" class="st1" d="M275.2-84.4v-49"/>
			<path id="path336" inkscape:connector-curvature="0" class="st1" d="M280.1-83.8v-93"/>
			<path id="path340" inkscape:connector-curvature="0" class="st1" d="M285-84.1v-93.2"/>
			<path id="path344" inkscape:connector-curvature="0" class="st1" d="M289.9-84.1v-93"/>
			<path id="path348" inkscape:connector-curvature="0" class="st1" d="M294.8-84.1v-93.5"/>
			<path id="path352" inkscape:connector-curvature="0" class="st1" d="M299.7-84.1v-93.2"/>
			<path id="path356" inkscape:connector-curvature="0" class="st1" d="M304.4-84.1l0.3-25.2"/>
			<path id="path360" inkscape:connector-curvature="0" class="st1" d="M305.4-156v-21"/>
			<path id="path364" inkscape:connector-curvature="0" class="st1" d="M310.7-169.8v-7.8"/>
			<path id="path368" inkscape:connector-curvature="0" class="st1" d="M309.6-84.1l-0.3-7.8"/>
			<path id="path388" inkscape:connector-curvature="0" class="st1" d="M396.9-88.3l-0.1-139.3"/>
			<path id="path392" inkscape:connector-curvature="0" class="st1" d="M401.7-83.8v-51.7"/>
			<path id="path396" inkscape:connector-curvature="0" class="st9" d="M402.3-147.7v-80"/>
			<path id="path400" inkscape:connector-curvature="0" class="st9" d="M406.6-83.8v-39.5"/>
			<path id="path404" inkscape:connector-curvature="0" class="st9" d="M406.5-156.3V-226"/>
			<path id="path408" inkscape:connector-curvature="0" class="st9" d="M411.5-84.1v-32.6"/>
			<path id="path412" inkscape:connector-curvature="0" class="st9" d="M411.2-161.9v-61.9"/>
			<path id="path416" inkscape:connector-curvature="0" class="st9" d="M416.2-83.8l0.3-27.2"/>
			<path id="path420" inkscape:connector-curvature="0" class="st9" d="M421.2-84.1v-22.4"/>
			<path id="path424" inkscape:connector-curvature="0" class="st9" d="M426.1-83.8v-21.5"/>
			<path id="path428" inkscape:connector-curvature="0" class="st9" d="M430.9-83.8V-104"/>
			<path id="path432" inkscape:connector-curvature="0" class="st9" d="M435.8-84.4v-18.2"/>
			<path id="path436" inkscape:connector-curvature="0" class="st9" d="M440.7-84.4v-17"/>
			<path id="path440" inkscape:connector-curvature="0" class="st9" d="M445.5-84.1v-16.2"/>
			<path id="path444" inkscape:connector-curvature="0" class="st9" d="M450.4-84.4v-14"/>
			<path id="path448" inkscape:connector-curvature="0" class="st9" d="M455.3-83.8v-13.4"/>
			<path id="path452" inkscape:connector-curvature="0" class="st9" d="M460.1-83.8v-11.5"/>
			<path id="path456" inkscape:connector-curvature="0" class="st9" d="M465.2-84.4l-0.3-10.2"/>
			<path id="path460" inkscape:connector-curvature="0" class="st9" d="M469.8-83.5l0.3-9.5"/>
			<path id="path464" inkscape:connector-curvature="0" class="st9" d="M474.9-84.4v-6.4"/>
			<path id="path468" inkscape:connector-curvature="0" class="st9" d="M475.1-94.7V-121"/>
			<path id="path472" inkscape:connector-curvature="0" class="st9" d="M470.2-118.8v21"/>
			<path id="path476" inkscape:connector-curvature="0" class="st9" d="M465.4-100.3V-118"/>
			<path id="path480" inkscape:connector-curvature="0" class="st9" d="M460.5-119.1v15.1"/>
			<path id="path484" inkscape:connector-curvature="0" class="st9" d="M479.8-84.4v-5.3"/>
			<path id="path488" inkscape:connector-curvature="0" class="st9" d="M479.9-93.3v-26"/>
			<path id="path492" inkscape:connector-curvature="0" class="st9" d="M484.7-84.6l-0.2-37.5"/>
			<path id="path496" inkscape:connector-curvature="0" class="st9" d="M489.6-84.4l0-42.6"/>
			<path id="path500" inkscape:connector-curvature="0" class="st9" d="M494.5-84.6v-41.4"/>
			<path id="path504" inkscape:connector-curvature="0" class="st9" d="M499.4-84.6l-0.2-43.4"/>
			<path id="path508" inkscape:connector-curvature="0" class="st9" d="M504.2-84.6v-45.6"/>
			<path id="path512" inkscape:connector-curvature="0" class="st9" d="M509.1-84.4l-0.1-49.8"/>
			<path id="path516" inkscape:connector-curvature="0" class="st9" d="M513.9-84.6v-44.5"/>
			<path id="path520" inkscape:connector-curvature="0" class="st9" d="M518.8-84.1v-41.7"/>
			<path id="path524" inkscape:connector-curvature="0" class="st9" d="M523.7-84.6v-40"/>
			<path id="path528" inkscape:connector-curvature="0" class="st9" d="M528.5-84.4l0-42"/>
			<path id="path532" inkscape:connector-curvature="0" class="st9" d="M533.4-84.6V-123"/>
			<path id="path536" inkscape:connector-curvature="0" class="st9" d="M538.2-84.6v-36.1"/>
			<path id="path540" inkscape:connector-curvature="0" class="st9" d="M543.1-85.2v-35"/>
			<path id="path544" inkscape:connector-curvature="0" class="st9" d="M547.9-84.6v-35.3"/>
			<path id="path548" inkscape:connector-curvature="0" class="st9" d="M552.8-84.6v-35.8"/>
			<path id="path552" inkscape:connector-curvature="0" class="st9" d="M557.7-85.5v-36.7"/>
			<path id="path556" inkscape:connector-curvature="0" class="st9" d="M441.2-120.5v-9.5"/>
			<path id="path560" inkscape:connector-curvature="0" class="st9" d="M446.2-114.9v-14.3"/>
			<path id="path564" inkscape:connector-curvature="0" class="st9" d="M450.7-110.7v-12.9"/>
			<path id="path568" inkscape:connector-curvature="0" class="st9" d="M416.5-168.1v-53.8"/>
			<path id="path650" inkscape:connector-curvature="0" class="st1" d="M224.2-144.3L377.3-16"/>
			<path id="path678" inkscape:connector-curvature="0" class="st10" d="M316.3-193.2v-20.4"/>
			<path id="path682" inkscape:connector-curvature="0" class="st1" d="M326.1-202.2v-19.9"/>
			<path id="path686" inkscape:connector-curvature="0" class="st1" d="M331.4-203.6v-20.7"/>
			<path id="path690" inkscape:connector-curvature="0" class="st1" d="M336.2-209.2v-17.4"/>
			<path id="path694" inkscape:connector-curvature="0" class="st1" d="M341.5-215.1v-13.2"/>
			<path id="path698" inkscape:connector-curvature="0" class="st1" d="M346.8-221.6v-7.8"/>
			<path id="path702" inkscape:connector-curvature="0" class="st1" d="M362.2-216.5V-232"/>
			<path id="path706" inkscape:connector-curvature="0" class="st1" d="M367.5-216.8l-0.2-15.6"/>
			<path id="path710" inkscape:connector-curvature="0" class="st1" d="M387.1-223.2l0-8.2"/>
		</g>
	</g>
	<g id="g712" transform="translate(316.7408,374.4993)">
		<path id="path714" inkscape:connector-curvature="0" class="st2" d="M303.6-212L292-266.1"/>
	</g>
	<g id="g716">
		<g>
			<g id="g718">
				<g id="g724" transform="translate(317.8608,377.4594)">
					<path id="path726" inkscape:connector-curvature="0" class="st2" d="M310.3-194.2c0,0-5.1-6.8-5.3-15.7
						c-0.4-16.3,11.4-40.4,70.6-46.8c44.3-4.8,96.9,14.8,86.5,55.7"/>
				</g>
				<g id="g728" transform="translate(318.7008,377.4594)">
					<path id="path730" inkscape:connector-curvature="0" class="st2" d="M315.4-194.2c0,0-7.7-15.3-2.2-25.5
						c10.9-20.2,33-31.2,69.4-30.2c88,2.2,68.9,49.3,68.9,49.3"/>
				</g>
				<g id="g732" transform="translate(319.4608,377.4194)">
				</g>
			</g>
		</g>
	</g>
	<g id="g740">
		<g>
			<g id="g742">
				<g id="g748" transform="translate(316.6608,374.1293)">
					<path id="path750" inkscape:connector-curvature="0" class="st2" d="M303.1-214.2c0,0,8.8-50.2,88.4-44.5
						c0,0,79.6-6.1,83.2,61.7"/>
				</g>
				<g id="g752" transform="translate(316.4208,372.9294)">
					<path id="path754" inkscape:connector-curvature="0" class="st2" d="M301.7-221.4c0,0-2.7-48.5,109.8-39.7
						c0,0,65.5,5.3,71.6,65.8"/>
				</g>
				<g id="g756" transform="translate(343.5808,376.6593)">
					<path id="path758" inkscape:connector-curvature="0" class="st2" d="M464.7-199c0,0-9.8-17.7-13.7-36
						c-2.3-10.7,4.8-11.1,10.5-21.8c0,0,0.6-9.7,0.6-10.3"/>
				</g>
				<g id="g760" transform="translate(316.1208,371.5193)">
					<path id="path762" inkscape:connector-curvature="0" class="st2" d="M299.9-229.8c0,0,6.3-28.8,54.8-32.8"/>
				</g>
				<g id="g764" transform="translate(315.8808,370.2893)">
					<path id="path766" inkscape:connector-curvature="0" class="st2" d="M298.5-237.2c0,0,19.1-30.2,54.4-24.4"/>
				</g>
				<g id="g768" transform="translate(315.7008,369.4493)">
					<path id="path770" inkscape:connector-curvature="0" class="st2" d="M297.4-242.3c0,0,7.4-14.9,28.8-19.1l34.2-1.7"/>
				</g>
				<g id="g772" transform="translate(334.8408,367.3793)">
					<path id="path774" inkscape:connector-curvature="0" class="st7" d="M412.2-254.7c0,0,26.5,3.4,43.1,25.2"/>
				</g>
				<g id="g776" transform="translate(335.2608,366.9893)">
					<path id="path778" inkscape:connector-curvature="0" class="st2" d="M414.7-257c0,0,27.5,2.9,41.8,25.2"/>
				</g>
				<g id="g780" transform="translate(338.1108,367.3493)">
					<path id="path782" inkscape:connector-curvature="0" class="st2" d="M431.8-254.9c0,0,8.8,1.3,13.9,7.8"/>
				</g>
			</g>
		</g>
	</g>
	<g id="g784" transform="translate(310.1808,366.8393)">
		<path id="path786" inkscape:connector-curvature="0" class="st2" d="M264.3-257.9l63.8-0.6"/>
	</g>
	<g id="g788">
		<g>
			<g id="g790">
				<g id="g796" transform="translate(337.5708,386.0693)">
					<path id="path798" inkscape:connector-curvature="0" class="st2" d="M428.6-142.5c0,0-2.3-29.6,42-47.7"/>
				</g>
			</g>
		</g>
	</g>
	<g id="g800" transform="translate(344.5609,382.7993)">
		<path id="path802" inkscape:connector-curvature="0" class="st2" d="M470.5-162.2h8.4V-183h-8.4V-162.2z"/>
	</g>
	<g id="g804" transform="translate(344.5608,382.7993)">
		<path id="path806" inkscape:connector-curvature="0" class="st2" d="M470.5-162.2l-0.2-25.2"/>
	</g>
	<g id="g808" transform="translate(340.6308,393.9893)">
		<path id="path810" inkscape:connector-curvature="0" class="st2" d="M447-95l4.8-21.4"/>
	</g>
	<g id="g812" transform="translate(341.5608,389.9393)">
		<path id="path814" inkscape:connector-curvature="0" class="st2" d="M452.5-119.3l16-75"/>
	</g>
	<g id="g816">
		<g>
			<g id="g818">
				<g id="g824" transform="translate(342.3708,379.9193)">
					<path id="path826" inkscape:connector-curvature="0" class="st2" d="M457.4-179.4c-0.8,43.5,32.1,87.6,32.1,87.6"/>
				</g>
				<g id="g828" transform="translate(346.9308,392.3093)">
					<path id="path830" inkscape:connector-curvature="0" class="st2" d="M484.8-105.1c0,0-37-52.3-27.5-88.8"/>
				</g>
			</g>
		</g>
	</g>
	<g id="g832" transform="translate(345.8208,390.5393)">
		<path id="path834" inkscape:connector-curvature="0" class="st2" d="M478.1-115.7l-19.5-50.8"/>
	</g>
	<g id="g836">
		<g>
			<g id="g838">
				<g id="g844" transform="translate(313.1008,363.0194)">
					<path id="path846" inkscape:connector-curvature="0" class="st2" d="M281.8-280.8c0,0,7.3-0.6,10.6,0.3
						c3.4,0.8,7.6,1.4,10.9,0.8c3.4-0.6,6.7-0.8,9.5-1.1c2.8-0.3,4.8-0.3,6.7-0.3c2,0,3.4-0.8,5.6-0.8c2.2,0,2.5,0.3,4.8,0.3
						s2.5,0.3,6.2,0c3.6-0.3,8.4,0.3,11.5,0.3c3.1,0,5.9,0.3,7,0.3s2.8,0.8,3.9,0.8c1.1,0,0.8,0,4.2,0.6s4.5,0.8,6.2,0.6
						s3.9-0.6,3.9-0.6h3.9"/>
				</g>
				<g id="g848" transform="translate(314.4608,361.4993)">
					<path id="path850" inkscape:connector-curvature="0" class="st11" d="M289.9-290c0,0,1.1,0,3.9,0.6c2.8,0.6,4.5,0.3,6.2,1.1
						c1.7,0.8,3.4,1.1,4.5,1.7s1.7,0.8,3.1,1.1s1.7,0.6,4.2,0.3c2.5-0.3,7.3,0,9.2,0c2,0,4.8,0,7.3-0.3c2.5-0.3,5.9-1.1,8.4-1.4
						s5-0.3,6.4-0.3s5.6-0.3,7.3-0.3s5.9,0,6.7-0.3s1.7,0.3,6.2,0.6c4.5,0.3,2.5,0.3,9,0.6s7,0.6,9.5,0s4.2-0.8,6.4-1.1
						s3.1,0,8.4-0.8s7.6-0.8,11.5-0.3c3.9,0.6,4.8,0.8,8.7,1.1c3.9,0.3,5.3,2.2,9,2.2c3.6,0,4.2,0.6,8.4,0.6s5.6,1.1,9.5,0
						c3.9-1.1,2-0.8,7.3-1.1c5.3-0.3,4.2-0.3,9.8-0.6c5.6-0.3,5.3-0.3,9,0.3s4.8,0,6.7,0.8s2.8,1.1,5.6,0.8c2.8-0.3,2-0.3,5.9-0.3
						c3.9,0,1.7,1.7,5.9,0.8c4.2-0.8,3.6-1.1,5.9-0.8s2,0.6,3.9,0.3c2-0.3,3.4,0.1,3.4,0.1"/>
				</g>
				<g id="g852" transform="translate(315.4608,360.1793)">
					<path id="path854" inkscape:connector-curvature="0" class="st12" d="M295.9-297.9c0,0-1.4-0.8,7.8-0.3
						c9.2,0.6,13.7,1.7,21,1.7s9.5,0.8,14.8,0.6c5.3-0.3,6.4,0.6,10.9-0.8s6.2-1.7,8.1-1.7h5.9c0,0,2.2-0.3,6.7-0.8
						s5.9-0.3,10.1-0.3c4.2,0,2-0.8,9.2,0.3c7.3,1.1,3.9,0.8,9,0.8c5,0,3.6,0.3,7,0.6s4.5,0.6,4.5,0.6"/>
				</g>
				<g id="g856" transform="translate(332.4208,360.2594)">
					<path id="path858" inkscape:connector-curvature="0" class="st11" d="M397.7-297.4c0,0,9.8,3.6,16.5,3.4s9.5-0.3,10.4,0
						s3.1,0,3.6-0.8c0.6-0.8,2.5,0,2.5,0s1.7,1.7,2.5,0l0.8-1.7l2.8,0.8l2.2-0.8c0,0-0.6-1.7,3.6-1.7c4.2,0,7-0.6,9-0.3
						s2.5-0.3,3.6-0.6c1.1-0.3,2.8-0.3,2.8-0.3l1.7,0.8c0,0,0.8,0.8,1.7,0.6c0.8-0.3,2-0.8,2-0.8"/>
				</g>
				<g id="g860" transform="translate(342.1008,360.2594)">
					<path id="path862" inkscape:connector-curvature="0" class="st11" d="M455.8-297.4c0,0,0.3,0.3,1.1,0.3"/>
				</g>
				<g id="g864" transform="translate(316.5808,359.0193)">
					<path id="path866" inkscape:connector-curvature="0" class="st11" d="M302.7-304.8c0,0,0.6,0.3,3.4,0.6c2.8,0.3,3.6,0,3.6,0
						s1.1,1.1,2,1.4c0.8,0.3,2.2,1.1,4.2,0.8s3.4,0,5.3,0s3.6-0.3,6.2-0.3c2.5,0,3.4,0.8,7.3,0.8c3.9,0,5-1.7,6.7-0.6
						c1.7,1.1,3.4,1.7,5.6,1.7h7.3c3.6,0,1.7,1.4,6.2,0.3c4.5-1.1,9.5-0.8,13.2-1.7c3.6-0.8,4.8-0.6,8.4-0.8
						c3.6-0.3,5.6-0.8,9.2-0.8h7c2.8,0,4.2-0.6,7-0.6s3.4,0.3,7,0.6c3.6,0.3,3.4-0.8,6.4,0.3s2.5-0.3,5.3,0.6c2.8,0.8,5,0.3,7.8,1.1
						c2.8,0.8,3.6,1.1,5.6,1.4c2,0.3,0.8,0,3.4,0.3s-1.4-0.3,2.5,0.3s2.8,0.8,5.3,0.8c2.5,0,2.8-0.6,5.9-0.3s-0.8,0.8,5,0.3
						c5.9-0.6,3.9-1.1,9-1.1h6.2h2.5h0.8"/>
				</g>
				<g id="g868" transform="translate(342.1808,359.6993)">
					<path id="path870" inkscape:connector-curvature="0" class="st11" d="M456.3-300.8c0,0,2,0.3,3.4,0.3s2.8-0.6,2.8-0.6"/>
				</g>
				<g id="g872" transform="translate(317.5809,357.9794)">
					<path id="path874" inkscape:connector-curvature="0" class="st11" d="M308.7-311.1h3.6c1.4,0,2.5,1.1,3.6,1.4s2,0.6,3.6,0.6
						s1.7,0,6.2-0.3c4.5-0.3,3.9,0.8,7.8-0.3c3.9-1.1,3.9-0.6,8.4-1.4c4.5-0.8,4.2-0.3,8.4-0.3c4.2,0,3.9-0.6,7.3,0.3
						c3.4,0.8,5.3,0.6,9,0.6c3.6,0,4.5,0,8.7,0.3c4.2,0.3,4.5-0.6,9.8,0.3s3.4,0.3,7.3-0.3s2.2-0.6,6.2-0.8s3.4,0,7.3,0s2.5,0,7-0.3
						s5.3-0.3,8.4-0.3c3.1,0,1.1,0,4.5,0.6c3.4,0.6,1.7,1.4,5.6,1.4c3.9,0,0.3,0.3,5.3,0.6c5,0.3,3.1,0.3,7.3,0.6
						c4.2,0.3,3.4,0.6,6.2,0.8s2,0,5.9,0s1.7,0.6,5.3,0c3.6-0.6,2-0.6,5-0.8c3.1-0.3-0.3,0.6,3.1-0.3c3.4-0.8,2.5,0,4.8-0.6
						c2.2-0.6,0.3-1.1,2.2-0.6"/>
				</g>
				<g id="g876" transform="translate(319.1409,356.5793)">
					<path id="path878" inkscape:connector-curvature="0" class="st11" d="M318-319.5c0.8,0,3.6-0.3,7-0.6c3.4-0.3,5.3-0.6,9.2-0.8
						c3.9-0.3,2.8-0.6,8.1-0.6c5.3,0,3.1-1.1,11.2-0.6s7.8,1.1,14,1.7c6.2,0.6,8.7,0.6,15.1,0.8s6.4,2,10.9,2s5,0.6,10.9-0.6
						c5.9-1.1,6.2-0.8,10.9-1.1c4.8-0.3,3.4-0.8,8.7-0.8s1.7-0.6,7.6,0c5.9,0.6,2.2,1.4,9,0.8s5.3,1.1,8.7,0.8
						c3.4-0.3,3.4,0,6.7-0.6c3.4-0.6,2.2-1.7,4.8-1.7"/>
				</g>
				<g id="g880" transform="translate(321.9808,354.4593)">
					<path id="path882" inkscape:connector-curvature="0" class="st11" d="M335.1-332.2c2,0.3,1.7-0.3,5.9,0.6s3.9,0.6,8.7,0.8
						c4.8,0.3,9.8,0.6,9.8,0.6s1.4,0,5-0.3c3.6-0.3,2.2-0.3,3.6-0.3"/>
				</g>
				<g id="g884" transform="translate(327.2208,354.6593)">
					<path id="path886" inkscape:connector-curvature="0" class="st11" d="M366.5-331c1.7-0.3,1.1,0.3,4.8-0.3
						c3.6-0.6,2.2-0.8,5.9,0c3.6,0.8,2.2,0.6,4.8,0.6c2.5,0,1.4-0.3,4.2-0.6s3.9,0.3,6.7-0.6c2.8-0.8,1.4-0.8,3.9-0.6
						c2.5,0.3,1.7,0.6,2.5,0.3"/>
				</g>
				<g id="g888" transform="translate(332.5008,354.5393)">
					<path id="path890" inkscape:connector-curvature="0" class="st11" d="M398.2-331.7c2.2,0.3,2.5,0,5,0s3.9,0.3,6.2,0.8
						s1.4,0.6,4.8,1.1c3.4,0.6,2,0.6,5.6,0.8c3.6,0.3,2.2,0.6,5,0.6s2-0.3,4.5,0c2.5,0.3,1.1,0.6,3.6,0.8c2.5,0.3,2.8,0.3,4.2,0"/>
				</g>
				<g id="g892" transform="translate(324.5008,352.7793)">
					<path id="path894" inkscape:connector-curvature="0" class="st11" d="M350.2-342.3c7.6-0.3,8.4-0.3,11.5-0.3
						c3.1,0,3.4,0.3,7.8,0.6s4.8,0,7.6,0.3c2.8,0.3,4.8-0.6,7.6-0.3c2.8,0.3,2.8,1.7,5,1.7s3.4-0.3,4.8,0c1.4,0.3,0.8,1.1,3.9,0.8
						c3.1-0.3,5-0.6,5.9-0.6s3.4,0,5.3-0.6c2-0.6,4.2-0.3,5.9-0.6c1.7-0.3,2.5-0.3,4.2-0.8"/>
				</g>
				<g id="g896" transform="translate(327.1408,351.2993)">
					<path id="path898" inkscape:connector-curvature="0" class="st11" d="M366-351.2c3.1,0.3,2.8,0.3,6.2,0
						c3.4-0.3,3.1,0.3,6.2,0.3s3.9,0,5.9-0.3s2-0.3,3.9-1.1c2-0.8,2.8,0,4.2-0.6l1.4-0.6l1.1-0.6"/>
				</g>
				<g id="g900" transform="translate(312.2608,364.0593)">
					<path id="path902" inkscape:connector-curvature="0" class="st7" d="M276.7-274.6h6.4c2.5,0,4.5-0.6,6.2,0s2.5,0.8,4.2,1.1
						c1.7,0.3,3.6,0.6,4.5,0.6s2-0.3,2-0.3"/>
				</g>
			</g>
		</g>
	</g>
	<g id="g904" transform="translate(315.8208,364.2993)">
		<path id="path906" inkscape:connector-curvature="0" class="st7" d="M298.1-273.2l2-0.6h0.8"/>
	</g>
	<g id="g908" transform="translate(316.8208,364.2993)">
		<path id="path910" inkscape:connector-curvature="0" class="st7" d="M304.1-273.2l2.5-0.8h1.1"/>
	</g>
	<g id="g912">
		<g>
			<g id="g914">
				<g id="g920" transform="translate(317.8209,364.1793)">
					<path id="path922" inkscape:connector-curvature="0" class="st7" d="M310.1-273.9c1.7-0.3,2.5-0.3,3.6-0.3h3.4
						c0,0,3.1,0.6,5,0.6s2.2,0,5,0.3c2.8,0.3,5.9,0.8,5.9,0.8s0.8,0,2.8,0.6s0,1.1,3.1,1.1c3.1,0,0.6,0.6,3.9-0.3
						c3.4-0.8,0.8-0.8,4.2-0.8c3.4,0,4.8-0.3,4.8-0.3s1.1-0.3,2.2-0.3c1.1,0-0.3,0.3,1.1,0l1.4-0.3"/>
				</g>
			</g>
		</g>
	</g>
	<g id="g924" transform="translate(325.2609,364.2593)">
		<path id="path926" inkscape:connector-curvature="0" class="st7" d="M354.7-273.4h1.7h1.4"/>
	</g>
	<g id="g928">
		<g>
			<g id="g930">
				<g id="g936" transform="translate(311.9808,364.7793)">
					<path id="path938" inkscape:connector-curvature="0" class="st7" d="M275.1-270.3c3.4,0.8,4.5,0.6,5.9,0.6s1.7,0.6,2.8,0.6"/>
				</g>
				<g id="g940" transform="translate(313.6208,364.9394)">
					<path id="path942" inkscape:connector-curvature="0" class="st7" d="M284.9-269.3c0,0,0.3,0.6,3.9,0c3.6-0.6,3.4-0.8,6.7-0.6
						c3.4,0.3,2,0.6,4.8,0.6c2.8,0,0.8,0.3,5.9-0.6c5-0.8,4.5,0,7.3,0c2.8,0,2.2,0.6,6.4,0.6c4.2,0,0.6-0.8,5.9-0.3
						c5.3,0.6,7,1.1,9.5,1.4c2.5,0.3,0,0.6,5,0.3s5.9,0.8,9.5-0.3c3.6-1.1,3.6-1.1,6.4-1.4c2.8-0.3,0.8,0,4.8-0.3
						c3.9-0.3,2.5,0,4.8-0.6c2.2-0.6,3.1-0.3,3.1-0.3"/>
				</g>
				<g id="g944" transform="translate(311.2608,365.4993)">
					<path id="path946" inkscape:connector-curvature="0" class="st7" d="M270.7-266c1.1,0,0-0.3,3.9-0.3c3.9,0,4.5,0.6,8.1,0.6
						c3.6,0,3.4,0.6,7.8,0s4.8-1.7,9.5-1.7c4.8,0,6.7,0.6,9.5,0.3c2.8-0.3,5.3,0,7.8,0s-1.1-0.6,7-0.3s7.6,0.8,9,0.6
						c1.4-0.3,1.7-0.3,5.9,0.6c4.2,0.8,2.5,1.1,6.2,1.1h5.9c2.8,0,1.7,0.3,6.2-0.3c4.5-0.6,4.5,0,5.6-0.3c1.1-0.3,3.9-0.6,4.8-0.6"
						/>
				</g>
				<g id="g948" transform="translate(310.8608,365.9793)">
					<path id="path950" inkscape:connector-curvature="0" class="st7" d="M268.3-263.1c1.4-0.3,1.7,0,3.4,0c1.7,0,3.4,0.6,4.5,0.6
						c1.1,0,0,0.8,2.5,0.3"/>
				</g>
				<g id="g952" transform="translate(313.5408,366.0993)">
					<path id="path954" inkscape:connector-curvature="0" class="st7" d="M284.4-262.4c2-0.6,1.4-0.3,3.4-0.6c2-0.3,2,0.3,3.1,0.3
						s1.1,0,2.8,0.3c1.7,0.3,0,0.3,1.7,0.3s1.1,0,2.5-0.3"/>
				</g>
				<g id="g956" transform="translate(310.9408,366.4593)">
					<path id="path958" inkscape:connector-curvature="0" class="st7" d="M268.8-260.2h5c1.1,0,2,0.3,3.1,0.3h2.5
						c1.4,0-1.1-0.6,1.4,0s0.8,0.8,3.4,0.8h2.5h3.1c2.2,0,0,0.8,3.1,0.3c3.1-0.6,3.6-0.3,6.7-0.8c3.1-0.6,4.2-0.8,5.6-0.8"/>
				</g>
			</g>
		</g>
	</g>
	<g id="g960" transform="translate(338.7408,366.8594)">
		<path id="path962" inkscape:connector-curvature="0" class="st7" d="M435.6-257.8h70.3"/>
	</g>
	<g id="g964">
		<g>
			<g id="g966">
				<g id="g972" transform="translate(339.6609,366.4593)">
					<path id="path974" inkscape:connector-curvature="0" class="st7" d="M441.1-260.2c0,0,2.5-0.8,5-0.3c2.5,0.6,3.9,1.1,5.6,1.1
						s4.5-0.3,4.5-0.3l3.1-0.6"/>
				</g>
				<g id="g976" transform="translate(341.2209,365.8593)">
					<path id="path978" inkscape:connector-curvature="0" class="st7" d="M450.5-263.8c0,0,2,0.3,3.4,0.3s3.4,0.6,4.8,0.6
						c1.4,0,3.4,0.6,5,0.6s3.1,0.6,5,0.6s2,0.6,3.9,0.8c2,0.3,0,0.3,2-0.8c2-1.1,2.5-1.4,3.6-1.4h3.6c1.7,0,4.5-0.3,4.5-0.3h3.4
						c2,0,2.5,0.6,3.6,0.3s2.8-0.3,3.6-0.3s-0.3,0.6,2.2,0"/>
				</g>
				<g id="g980" transform="translate(343.0209,366.3393)">
					<path id="path982" inkscape:connector-curvature="0" class="st7" d="M461.3-260.9l1.1,1.4h2.8l1.7-0.3l1.7-0.6h2
						c0,0,0.8,0.8,1.7,0.6s1.1-0.6,2.2-0.6s1.1-0.3,2.8-0.6c1.7-0.3,3.6,0,3.6,0s0.6,1.1,3.1,0.8c2.5-0.3,3.9,0,5,0h4.2
						c1.1,0,1.4,0.3,3.6,0.3c2.2,0,3.1-0.3,3.1-0.3"/>
				</g>
				<g id="g984" transform="translate(341.8608,365.2593)">
					<path id="path986" inkscape:connector-curvature="0" class="st7" d="M454.3-267.4c0,0,1.7-0.3,3.6,0.3c2,0.6,3.4,0.6,4.5,0.8
						c1.1,0.3,1.4,0.3,2.2,0.3"/>
				</g>
				<g id="g988" transform="translate(343.9008,365.4993)">
					<path id="path990" inkscape:connector-curvature="0" class="st7" d="M466.6-266c0,0,1.1,0.6,2.8,0.6c1.7,0,2-0.8,3.1-0.8h1.1
						l2.5-0.6h1.1c1.1,0,2.8-0.3,2.8-0.3l2.2-0.3c0,0,0,0.3,1.1,0.3h2h0.8h1.1"/>
				</g>
			</g>
		</g>
	</g>
	<g id="g992" transform="translate(347.4208,365.2593)">
		<path id="path994" inkscape:connector-curvature="0" class="st7" d="M487.7-267.4h0.8l0.8,0.3l1.7-0.3"/>
	</g>
	<g id="g996">
		<g id="g1004" transform="translate(342.7408,364.5794)">
			<path id="path1006" inkscape:connector-curvature="0" class="st7" d="M459.6-271.5c0,0,0-0.6,2.2-0.6c2.2,0,4.8-0.6,5.9,0
				c1.1,0.6,1.4,1.7,3.9,1.1s3.9-0.3,3.9-0.3s1.4,0.8,2.8,0.8s0.8,1.1,2.2,0.6s2.2-0.3,3.4-0.8l1.1-0.6c0,0,2.2-0.3,3.1-0.3h0.8
				l1.7-0.3"/>
		</g>
		<g id="g1008" transform="translate(344.0608,363.6593)">
			<path id="path1010" inkscape:connector-curvature="0" class="st7" d="M467.5-277c0,0,0.3-0.6,2-0.6c1.7,0,2.5-0.3,3.6-0.3
				s0.6,0.3,2,0c1.4-0.3,1.7-0.3,2.8-0.3h1.1c0,0,1.4,0.3,2.2,0.6c0.8,0.3-0.3,0,0.8,0.3l1.1,0.3h0.8h1.1"/>
		</g>
		<g id="g1012" transform="translate(324.5808,367.2993)">
			<path id="path1014" inkscape:connector-curvature="0" class="st3" d="M350.7-255.2c0,0,6-6.1,7.3-8.1c0.6-0.8-1.1-2-2-4.2
				s-1.7-3.4,2.5-7.6c4.2-4.2,8.1-8.1,9.5-9.8c1.4-1.7,4.5-5,5.6-5.9c1.1-0.8,3.4-2.2,6.7-2.8c3.4-0.6,4.2,0,7-0.6
				c2.8-0.6,3.9-0.8,5.6-0.8s2.8,0.8,2.8,0.8s-0.8,2.5-5,6.7s-9,9.2-12.3,12.6c-3.4,3.4-4.2,5.9-7.6,7c-3.4,1.1-2.5,1.7-5.9,4.2
				c-3.4,2.5-4.2,2.8-6.7,5.6c-2.5,2.8-4.5,5-6.2,6.7c-1.7,1.7-5.5,4.6-5.5,4.6s-3.5,0.7-0.4-3.2
				C349.3-253.8,350.7-255.2,350.7-255.2"/>
		</g>
		<g id="g1016" transform="translate(324.5808,367.2993)">
			<path id="path1018" inkscape:connector-curvature="0" class="st7" d="M350.7-255.2c0,0,6-6.1,7.3-8.1c0.6-0.8-1.1-2-2-4.2
				s-1.7-3.4,2.5-7.6c4.2-4.2,8.1-8.1,9.5-9.8c1.4-1.7,4.5-5,5.6-5.9c1.1-0.8,3.4-2.2,6.7-2.8c3.4-0.6,4.2,0,7-0.6
				c2.8-0.6,3.9-0.8,5.6-0.8s2.8,0.8,2.8,0.8s-0.8,2.5-5,6.7s-9,9.2-12.3,12.6c-3.4,3.4-4.2,5.9-7.6,7c-3.4,1.1-2.5,1.7-5.9,4.2
				c-3.4,2.5-4.2,2.8-6.7,5.6c-2.5,2.8-4.5,5-6.2,6.7c-1.7,1.7-5.5,4.6-5.5,4.6s-3.5,0.7-0.4-3.2
				C349.3-253.8,350.7-255.2,350.7-255.2z"/>
		</g>
		<g id="g1020" transform="translate(328.0608,366.9594)">
			<path id="path1022" inkscape:connector-curvature="0" class="st3" d="M371.5-257.2c0,0,3.4-3.8,3.9-4.6c0.6-0.8,0.8-1.4,0.3-5
				c-0.6-3.6-0.6-3.9,2-6.4c2.5-2.5,19.6-19.9,19.6-19.9s7.3,0,9.8,0.8c2.5,0.8,4.2,1.1,4.2,1.1l2.2,0.3h1.4c0,0-27.7,24.6-30,26.3
				s-13.7,11.8-13.7,11.8s-4.1,3.1-6.3,5.2c-2,1.9-4,0.8-2.1-1.3C367.5-253.8,371.5-257.2,371.5-257.2"/>
		</g>
		<g id="g1024" transform="translate(328.0608,366.9594)">
			<path id="path1026" inkscape:connector-curvature="0" class="st7" d="M371.5-257.2c0,0,3.4-3.8,3.9-4.6c0.6-0.8,0.8-1.4,0.3-5
				c-0.6-3.6-0.6-3.9,2-6.4c2.5-2.5,19.6-19.9,19.6-19.9s7.3,0,9.8,0.8c2.5,0.8,4.2,1.1,4.2,1.1l2.2,0.3h1.4c0,0-27.7,24.6-30,26.3
				s-13.7,11.8-13.7,11.8s-4.1,3.1-6.3,5.2c-2,1.9-4,0.8-2.1-1.3C367.5-253.8,371.5-257.2,371.5-257.2z"/>
		</g>
		<g id="g1028" transform="translate(331.0209,366.6593)">
			<path id="path1030" inkscape:connector-curvature="0" class="st3" d="M389.3-259c1.5-1.5,3.9-2.2,3.6-5c-0.3-2.8,1.7-5,4.8-8.1
				c3.1-3.1,11.8-10.9,11.8-10.9l6.7-6.7c0,0,6.7,0.3,8.4,0s5-1.1,6.2-1.1h4.8h1.4l-28,25.2c0,0-0.6,0.3-3.4,1.1
				c-2.8,0.8-7.3,3.6-8.1,4.8c-0.8,1.1-10.3,8.3-10.9,9c-1.1,1.3-7.1,7.1-9,5C376.2-247.4,387.8-257.5,389.3-259"/>
		</g>
		<g id="g1032" transform="translate(331.0209,366.6593)">
			<path id="path1034" inkscape:connector-curvature="0" class="st7" d="M389.3-259c1.5-1.5,3.9-2.2,3.6-5c-0.3-2.8,1.7-5,4.8-8.1
				c3.1-3.1,11.8-10.9,11.8-10.9l6.7-6.7c0,0,6.7,0.3,8.4,0s5-1.1,6.2-1.1h4.8h1.4l-28,25.2c0,0-0.6,0.3-3.4,1.1
				c-2.8,0.8-7.3,3.6-8.1,4.8c-0.8,1.1-10.3,8.3-10.9,9c-1.1,1.3-7.1,7.1-9,5C376.2-247.4,387.8-257.5,389.3-259z"/>
		</g>
		<g id="g1036" transform="translate(332.8608,368.1393)">
			<path id="path1038" inkscape:connector-curvature="0" class="st3" d="M400.3-250.1c0,0,8-6.6,9.7-8.3s4.9-4.3,5.5-5.2
				s0.8-1.1,0.6-3.6c-0.3-2.5,0.8-4.2,3.6-6.7c2.8-2.5,14-11.5,14-11.5l7.8-6.7l0.8-1.1c0,0,0.8,0.3,3.1,0c2.2-0.3,4.2,0,5.9,0.3
				c1.7,0.3,2.2,0.8,3.9,0.8s3.6,0.6,3.6,0.6s0.8,1.7-2,4.2c-2.8,2.5-21.3,17.1-21.3,17.1s-0.8,2.5-6.2,5
				c-5.3,2.5-10.6,5.3-13.7,7.6c-3.1,2.2-14.6,12.9-16.5,11.1C397.9-247.8,400.3-250.1,400.3-250.1"/>
		</g>
		<g id="g1040" transform="translate(332.8608,368.1393)">
			<path id="path1042" inkscape:connector-curvature="0" class="st7" d="M400.3-250.1c0,0,8-6.6,9.7-8.3s4.9-4.3,5.5-5.2
				s0.8-1.1,0.6-3.6c-0.3-2.5,0.8-4.2,3.6-6.7c2.8-2.5,14-11.5,14-11.5l7.8-6.7l0.8-1.1c0,0,0.8,0.3,3.1,0c2.2-0.3,4.2,0,5.9,0.3
				c1.7,0.3,2.2,0.8,3.9,0.8s3.6,0.6,3.6,0.6s0.8,1.7-2,4.2c-2.8,2.5-21.3,17.1-21.3,17.1s-0.8,2.5-6.2,5
				c-5.3,2.5-10.6,5.3-13.7,7.6c-3.1,2.2-14.6,12.9-16.5,11.1C397.9-247.8,400.3-250.1,400.3-250.1z"/>
		</g>
		<g id="g1044" transform="translate(335.7408,368.5793)">
			<path id="path1046" inkscape:connector-curvature="0" class="st3" d="M417.6-247.5l10.9-9.5l3.9-3.1c0,0,0.3,0.3,0.3-2.8
				c0-3.1,0-4.5,3.4-7.3c3.4-2.8,19-14.6,19-14.6l9.2-7.3h3.9l2,0.8c0,0,2.2-0.6,3.1-0.6s3.4-0.6,3.4-0.6l3.4,0.3l3.1,0.3l2.5,0.1
				c0,0-18.8,15.3-24.6,20c-5.9,4.8-9.5,7-9.5,7s0.3-0.6-3.1,0.8c-3.4,1.4-5.3,2-7.6,3.1s-4.5,2.8-8.1,5.6c-3.6,2.8-6.4,5-8.4,6.4
				s-3.9,2.8-3.9,2.8s-2.5,2-3.4-0.3L417.6-247.5z"/>
		</g>
		<g id="g1048" transform="translate(335.7408,368.5793)">
			<path id="path1050" inkscape:connector-curvature="0" class="st7" d="M417.6-247.5l10.9-9.5l3.9-3.1c0,0,0.3,0.3,0.3-2.8
				c0-3.1,0-4.5,3.4-7.3c3.4-2.8,19-14.6,19-14.6l9.2-7.3h3.9l2,0.8c0,0,2.2-0.6,3.1-0.6s3.4-0.6,3.4-0.6l3.4,0.3l3.1,0.3l2.5,0.1
				c0,0-18.8,15.3-24.6,20c-5.9,4.8-9.5,7-9.5,7s0.3-0.6-3.1,0.8c-3.4,1.4-5.3,2-7.6,3.1s-4.5,2.8-8.1,5.6c-3.6,2.8-6.4,5-8.4,6.4
				s-3.9,2.8-3.9,2.8s-2.5,2-3.4-0.3L417.6-247.5z"/>
		</g>
		<g id="g1052" transform="translate(340.7008,397.6593)">
			<path id="path1054" inkscape:connector-curvature="0" class="st7" d="M447.4-73c0,0-92.4-70-65-155.1"/>
		</g>
		<g id="g1056" transform="translate(340.3809,397.1393)">
			<path id="path1058" inkscape:connector-curvature="0" class="st7" d="M445.5-76.1c0,0-74.5-73.4-65-131.6"/>
		</g>
		<g id="g1060" transform="translate(312.5208,402.0993)">
			<path id="path1062" inkscape:connector-curvature="0" class="st13" d="M278.3-46.4c0,0-8.8-8.2-0.6-32.5c0,0-2.9,18.9-13.6,18.5
				c-4.2-0.2-6.9-6.5-7.1-7.1c-0.2-0.6,10.9,1.9,14.3-5.9c3.4-7.8,1.5-15.3-5-25c0,0,9.2-1.9,10.5,13.2c0,0-0.4-15.4-2.3-16.8
				c-2.7-1.9,1.5-5.9,4-6.5"/>
		</g>
		<g id="g1064" transform="translate(312.5808,402.0693)">
			<path id="path1066" inkscape:connector-curvature="0" class="st13" d="M278.7-46.5c0,0,8.8-8.2,0.6-32.5c0,0,2.9,18.9,13.6,18.5
				c4.2-0.2,6.9-6.5,7.1-7.1c0.2-0.6-10.9,1.9-14.3-5.9c-3.4-7.8-1.5-15.3,5-25c0,0-9.2-1.9-10.5,13.2c0,0,0.4-15.4,2.3-16.8
				c2.7-1.9-1.5-5.9-4-6.5"/>
		</g>
		<g id="g1068" transform="translate(311.5607,397.4793)">
			<path id="path1070" inkscape:connector-curvature="0" class="st3" d="M272.5-74.1c0,0,13.4-0.1,14-0.1c3.9-0.1,4.2-6,0.1-6
				s-13.2,0.1-14.1,0.1C268.3-80.2,268-74,272.5-74.1"/>
		</g>
		<g id="g1072" transform="translate(311.5607,397.4793)">
			<path id="path1074" inkscape:connector-curvature="0" class="st14" d="M272.5-74.1c0,0,13.4-0.1,14-0.1c3.9-0.1,4.2-6,0.1-6
				s-13.2,0.1-14.1,0.1C268.3-80.2,268-74,272.5-74.1z"/>
		</g>
		<g id="g1076" transform="translate(312.5433,401.9118)">
			<path id="path1078" inkscape:connector-curvature="0" class="st15" d="M278.4-47.5l0-30.3"/>
		</g>
		<g id="g1080" transform="translate(312.5508,396.5118)">
			<path id="path1082" inkscape:connector-curvature="0" class="st16" d="M278.5-79.9l0.1-21.9"/>
		</g>
		<g id="g1084" transform="translate(345.5958,402.0997)">
			<path id="path1086" inkscape:connector-curvature="0" class="st13" d="M476.8-46.4c0,0-8.8-8.2-0.6-32.5c0,0-2.9,18.9-13.6,18.5
				c-4.2-0.2-6.9-6.5-7.1-7.1c-0.2-0.6,10.9,1.9,14.3-5.9c3.4-7.8,1.5-15.3-5-25c0,0,9.2-1.9,10.5,13.2c0,0-0.4-15.4-2.3-16.8
				c-2.7-1.9,1.5-5.9,4-6.5"/>
		</g>
		<g id="g1088" transform="translate(345.6558,402.0696)">
			<path id="path1090" inkscape:connector-curvature="0" class="st13" d="M477.1-46.5c0,0,8.8-8.2,0.6-32.5c0,0,2.9,18.9,13.6,18.5
				c4.2-0.2,6.9-6.5,7.1-7.1c0.2-0.6-10.9,1.9-14.3-5.9c-3.4-7.8-1.5-15.3,5-25c0,0-9.2-1.9-10.5,13.2c0,0,0.4-15.4,2.3-16.8
				c2.7-1.9-1.5-5.9-4-6.5"/>
		</g>
		<g id="g1092" transform="translate(344.6357,397.4796)">
			<path id="path1094" inkscape:connector-curvature="0" class="st3" d="M471-74.1c0,0,13.4-0.1,14-0.1c3.9-0.1,4.2-6,0.1-6
				s-13.2,0.1-14.1,0.1C466.8-80.2,466.4-74,471-74.1"/>
		</g>
		<g id="g1096" transform="translate(344.6357,397.4796)">
			<path id="path1098" inkscape:connector-curvature="0" class="st14" d="M471-74.1c0,0,13.4-0.1,14-0.1c3.9-0.1,4.2-6,0.1-6
				s-13.2,0.1-14.1,0.1C466.8-80.2,466.4-74,471-74.1z"/>
		</g>
		<g id="g1100" transform="translate(345.6183,401.9121)">
			<path id="path1102" inkscape:connector-curvature="0" class="st15" d="M476.9-47.5l0-30.3"/>
		</g>
		<g id="g1104" transform="translate(345.6258,396.5121)">
			<path id="path1106" inkscape:connector-curvature="0" class="st16" d="M476.9-79.9l0.1-21.9"/>
		</g>
		<g id="g1108" transform="translate(345.5808,384.9393)">
			<path id="path1110" inkscape:connector-curvature="0" class="st17" d="M476.7-149.3c-0.6,0.4-1.8,0.7-2.5,0.2
				c-0.8-0.6-0.5-1.3-0.3-2.1c0.7-0.2,1.6-1,2.5-0.6c0.7,0.4,0.9,1.8,0.3,2.2"/>
		</g>
		<g id="g1112" transform="translate(344.9008,382.9793)">
			<path id="path1114" inkscape:connector-curvature="0" class="st17" d="M472.6-161.1c0.9,0.3,2,1,2.2,2c0.2,1.1-0.7,1.7-1.1,2.5
				c-0.7,1.7-0.2,5.4,2.5,4.8c2.2-0.5,1.7-3.9,0.9-5.3c-0.5-0.9-1.5-1-1.1-2.2c0.3-0.9,1.1-1.9,1.9-2.3"/>
		</g>
		<g id="g1116" transform="translate(329.8209,366.8193)">
			<path id="path1118" inkscape:connector-curvature="0" class="st7" d="M382.1-258c2,0,2-0.8,1.7-2.2c1,0,2.4-0.5,2.5-1.7
				c0.1-1-1-1.6-1.6-2.3c1.6,0.1,3.1-0.1,4.7,0c1.1,0.1,2.1-0.3,3.1-0.3"/>
		</g>
		<g id="g1120" transform="translate(333.6609,366.1793)">
			<path id="path1122" inkscape:connector-curvature="0" class="st17" d="M405.1-261.9c2.6,0,5.1,0.3,7.6,0.3"/>
		</g>
		<g id="g1124" transform="translate(315.1008,372.4994)">
			<path id="path1126" inkscape:connector-curvature="0" class="st7" d="M293.8-224c1.2-0.2,3.2,0.9,4.2,1.5c0.9,0.5,2.1,1.8,3,1.8
				c0.2-1.6-2.7-2.6-2.7-3.8c0.1-0.1,0.3-0.1,0.4,0c-0.5-0.3-0.8-0.9-1-1.3c0.2,0,0.3-0.1,0.5-0.1c-0.1-0.1-0.4-0.6-0.5-0.7
				c0.2,0,0.3-0.1,0.5-0.1c0-0.1,0-0.2-0.1-0.2c0.4-0.1,0.8-0.3,1.2-0.6c-0.2-0.5-0.6-0.7-1-1.1c-0.6-0.5-0.7-0.7-1.1-1.4
				c-0.5-0.9-0.3-1.1-0.4-2c0-0.7,0-0.9-0.5-1.8c0.5-0.3,1-0.3,1.3,0.1"/>
		</g>
		<g id="g1128" transform="translate(315.0208,372.7394)">
			<path id="path1130" inkscape:connector-curvature="0" class="st7" d="M293.3-222.5c0.6,0.2,0.7,0.9,1.4,0.8"/>
		</g>
		<g id="g1132" transform="translate(315.1808,371.3793)">
			<path id="path1134" inkscape:connector-curvature="0" class="st7" d="M294.3-230.7c1-0.2,1.6,0.5,2.6,0.1c1-0.4,1.2-0.9,2.4-1
				c-0.1-0.1-0.1-0.4-0.3-0.5"/>
		</g>
		<g id="g1136" transform="translate(315.9408,370.8194)">
			<path id="path1138" inkscape:connector-curvature="0" class="st7" d="M298.8-234c-1.1-0.9-2.8-0.7-3.9-1.8
				c-0.4-0.4-0.4-0.8-0.9-1.1c-0.7-0.4-1.5-0.1-2.2-0.2c-0.1-0.2-0.1-0.6,0-0.8"/>
		</g>
		<g id="g1140" transform="translate(314.2209,369.4593)">
			<path id="path1142" inkscape:connector-curvature="0" class="st7" d="M288.5-242.2c0.1-0.5,0.9-1.5,1.4-1.8
				c0.9-0.5,1.7-0.2,2.4,0.4c0.3,0.2,2,1.9,2,2.3c0.1,0.9-1.2,0.8-1.8,0.8c0.7,1.1,2.4,1.4,3.5,1.9c1,0.4,2.3,1.6,2.8,2.5"/>
		</g>
		<g id="g1144" transform="translate(312.2608,367.1793)">
			<path id="path1146" inkscape:connector-curvature="0" class="st7" d="M276.7-255.9c0-0.2,0.1-0.3,0.3-0.3
				c0.9,0.7,2.4,0.3,3.4,1.1c0.6,0.4,0.8,1.1,1.3,1.5c0.8,0.6,0.5,0.3,1.4,0.2c0.7-0.1,0.4-0.2,1.1,0.1c0.2,0.1,0.6,0.4,0.8,0.6
				c0.7,0.4,1.7,0.9,2.5,0.8c0,0.2,0.1,0.3,0.1,0.5c0.2,0.1,0.6,0.1,0.8,0"/>
		</g>
		<g id="g1148" transform="translate(313.0208,366.9794)">
			<path id="path1150" inkscape:connector-curvature="0" class="st8" d="M281.3-257.1c0.5,0.3,1.4,0.7,1.6,1.4
				c0.2,0.9-0.5,1-0.8,1.7"/>
		</g>
		<g id="g1152" transform="translate(313.9809,366.9794)">
			<path id="path1154" inkscape:connector-curvature="0" class="st17" d="M287.1-257.1c2.1,0.9-0.5,2.5,0.1,3.6
				c0.2,0.3,0.9,0.4,1.2,0.6c0.3,0.3,0.5,0.7,0.8,1.1c0.4,0.5,1.1,0.8,1.1,1.5"/>
		</g>
		<g id="g1156" transform="translate(313.8208,367.4594)">
			<path id="path1158" inkscape:connector-curvature="0" class="st17" d="M286.1-254.2c-0.8,0.1-1.4-1-0.9-1.7
				c0.4-0.5,2-0.4,2.6-0.3c1.6,0.3,2.8,2.4,0.8,3.1"/>
		</g>
		<g id="g1160" transform="translate(315.4608,373.0593)">
			<path id="path1162" inkscape:connector-curvature="0" class="st17" d="M295.9-220.6c0.5-2.1,2.6,1.4,2.8,2"/>
		</g>
		<g id="g1164" transform="translate(316.1008,366.0194)">
			<path id="path1166" inkscape:connector-curvature="0" class="st17" d="M299.8-262.8c1.9,0.6,3.1,2.4,5,2.5
				c2.6,0.2,5.2-0.3,7.8-0.3h3.7c0.5,0,0.9,0,1.4,0c0.2,0,0.6,0.1,0.8,0c0.3-0.1,0.7-0.5,0.8-0.5c0.7,0,0.4,0.4,1,0.6
				c0.5,0.2,0.9,0.2,1.4,0.3c0.9,0.1,1.9,0.4,2.9,0.5c0.9,0.1,2,0.6,2.8,0.6c1.2,0,2.2-0.8,3.4-1.1c2-0.4,4.6-0.1,6.7-0.1
				c1.2,0,2.4,0,3.6,0c1.3,0,2.5-0.4,3.8-0.6c1.2-0.2,2.4,0.2,3.6,0.3c1.2,0.1,2.2-0.6,3.4-0.6"/>
		</g>
		<g id="g1168" transform="translate(318.7408,366.1394)">
			<path id="path1170" inkscape:connector-curvature="0" class="st18" d="M315.6-262.1c1.2-0.6,2.3-0.6,3.6-0.6c1.5,0,2.6-0.3,4-0.5
				c1.6-0.2,3.1-0.3,4.7-0.3c1.4,0,2.8,0.4,4.2,0.3c1.6-0.1,2.9-0.8,4.5-0.5c1,0.1,2,0.5,2.8,1c0.6,0.3,1.1,0.9,1.7,1.2
				c1.5,0.8,2.7,0.3,4.4,0c0.8-0.2,2.9-1.2,3.6-0.6"/>
		</g>
		<g id="g1172" transform="translate(324.0609,366.2594)">
			<path id="path1174" inkscape:connector-curvature="0" class="st18" d="M347.5-261.4c1.1-0.1,2.1-0.5,3.4-0.6"/>
		</g>
		<g id="g1176" transform="translate(325.9408,366.8193)">
			<path id="path1178" inkscape:connector-curvature="0" class="st17" d="M358.8-258c1.2-0.1,2.3,0.4,3.6,0.2c0.3-1.2-1.4-1-1.1-2.2
				"/>
		</g>
		<g id="g1180" transform="translate(326.7408,366.2193)">
			<path id="path1182" inkscape:connector-curvature="0" class="st17" d="M363.6-261.6c0.6,0,1.3,0,1.9,0c0.2,1,2.2,1.6,1.6,2.5
				c0.9-0.7,2.4-0.4,3.5-0.7c1.4-0.4,1.4-1.1,2.9-0.6c0-0.5-1.5-0.9-2.1-1.3c-0.6-0.5-1.1-1-1.6-1.6c-0.6,0.3-1.3,0-1.9,0.4
				c1.5,0.3,3.1,0,4.4-0.4c1.6-0.5,2.4-0.5,3.9-0.1"/>
		</g>
		<g id="g1184" transform="translate(327.2208,366.4994)">
			<path id="path1186" inkscape:connector-curvature="0" class="st17" d="M366.5-260c-0.1,0.9-2.1,0.9-2.5,1.4"/>
		</g>
		<g id="g1188" transform="translate(313.9008,367.8593)">
			<path id="path1190" inkscape:connector-curvature="0" class="st17" d="M286.6-251.8c0.9,0,1.9,0.5,2.4,1.1
				c-0.6,0.7-3.4,0.5-4.3,0.6c-0.3,0.8,0.3,1,0.5,1.6c0.2,0.6,0,1.3,0.1,2c0.3,1.5,1.9,1.2,3.4,1.4c1.6,0.2,2.7,0.6,4.1,1.4
				c1.3,0.8,2,1.8,3.3,2.7c-0.9-2.2-1.8-4.7-2.3-6.9c-0.7-2.8-4.1-1.4-6.3-1.4c1.3-0.1,3,0.1,4.2,0.3c1,0.2,1.6,0.8,2.5,0.2
				c1.2-1-0.1-2.7,0.8-3.6c-0.9-1.2-1.2-1.8-2.7-1.7c0-0.4,1.3-2.9,1.6-2.5"/>
		</g>
		<g id="g1192" transform="translate(314.0608,368.9393)">
			<path id="path1194" inkscape:connector-curvature="0" class="st17" d="M287.5-245.3c0.5,0.3-0.4,0.9-0.7,1.4
				c0.2,0,0.5,0.4,0.7,0.4c0.1,0.4-0.1,0.8-0.5,0.9c-0.1-0.8,0.8-1.5,1.6-1.3"/>
		</g>
		<g id="g1196" transform="translate(315.3808,368.9793)">
			<path id="path1198" inkscape:connector-curvature="0" class="st17" d="M295.5-245.1c-0.3,0.6-0.8,1.1-0.8,1.7
				c0.1,0.8,0.9,1.4,1.3,2"/>
		</g>
		<g id="g1200" transform="translate(315.0609,368.4194)">
			<path id="path1202" inkscape:connector-curvature="0" class="st17" d="M293.5-248.4c0.5-0.1,1,0,1.3,0.3c0.2-0.7-0.1-1.6-0.5-2.2
				"/>
		</g>
		<g id="g1204" transform="translate(313.7408,367.8593)">
			<path id="path1206" inkscape:connector-curvature="0" class="st17" d="M285.6-251.8c-0.9,0-3.4,0.9-3.9,0.3
				c0.8-0.4,1.2,0.6,1.7,1.1"/>
		</g>
		<g id="g1208" transform="translate(332.6608,366.9393)">
			<path id="path1210" inkscape:connector-curvature="0" class="st17" d="M399.1-257.3c1.2-0.8,2-1.8,3.6-1.6c1,0.1,2.1,1.6,2,2.7
				c0.3,0,0.6,0.1,0.9,0c-0.3,0-0.7,0-1,0h0"/>
		</g>
		<g id="g1212" transform="translate(333.3808,366.7394)">
			<path id="path1214" inkscape:connector-curvature="0" class="st17" d="M403.5-258.5c1.3-1,3.1,0.6,4.3-0.2c0.5,0.4,1,0.8,1.6,0.7
				"/>
		</g>
		<g id="g1216" transform="translate(333.6208,367.0593)">
			<path id="path1218" inkscape:connector-curvature="0" class="st17" d="M404.9-256.6c0.4,0.4,1.4,0.4,2,0.6"/>
		</g>
		<g id="g1220" transform="translate(336.0609,366.8193)">
			<path id="path1222" inkscape:connector-curvature="0" class="st17" d="M419.5-258c1.1,0.1,2-0.5,3.1-0.2c1.2,0.3,2.3,0.4,3.6,0.6
				c0.2,1.2,1.7,1.1,2.6,1.1"/>
		</g>
		<g id="g1224" transform="translate(336.7408,366.4593)">
			<path id="path1226" inkscape:connector-curvature="0" class="st17" d="M423.6-260.2c0.2,0.1,0.4,0.2,0.6,0.3"/>
		</g>
		<g id="g1228" transform="translate(337.2609,366.4593)">
			<path id="path1230" inkscape:connector-curvature="0" class="st17" d="M426.7-260.2c0.1-0.3,0.4-0.6,0.6-0.8
				c0.7,0.1,1.6,0.4,1.9,1.1"/>
		</g>
		<g id="g1232" transform="translate(337.4208,365.8994)">
			<path id="path1234" inkscape:connector-curvature="0" class="st17" d="M427.7-263.6c0.5,0.6,2.4,0.5,3.4,0.6"/>
		</g>
		<g id="g1236" transform="translate(338.9409,367.0593)">
			<path id="path1238" inkscape:connector-curvature="0" class="st5" d="M436.8-256.6c0,0,12.3,21.8,15.1,27.4
				c2.8,5.6,2.2,0.6,2.8-2c0.6-2.5,3.1-6.4,4.5-7.6c1.4-1.1,2-3.4,3.6-4.8s3.9-2.8,3.9-4.8c0-2-0.3-9-0.3-9l-29.7-0.8"/>
		</g>
		<g id="g1240" transform="translate(342.1408,367.0193)">
			<path id="path1242" inkscape:connector-curvature="0" class="st19" d="M456-256.8c0,2.2,0.3,4.6,0,6.7c-0.2,1.2-0.7,2.4-0.9,3.5
				c-0.1,1.1,0,2.3,0,3.4"/>
		</g>
		<g id="g1244" transform="translate(342.3008,368.9393)">
			<path id="path1246" inkscape:connector-curvature="0" class="st19" d="M457-245.3c0.1-0.9,0.8-1.5,0.8-2.5
				c0.1-1.5,0.4-2.8,0.6-4.2c0.2-1.3,0.1-2.3,0-3.6c-0.1-1.1,0.3-2.3,0.3-3.5v0"/>
		</g>
		<g id="g1248" transform="translate(341.7009,367.1793)">
			<path id="path1250" inkscape:connector-curvature="0" class="st19" d="M453.4-255.9v2.8"/>
		</g>
		<g id="g1252" transform="translate(341.6608,368.8994)">
			<path id="path1254" inkscape:connector-curvature="0" class="st19" d="M453.1-245.6c0-2.4,0.5-5.2,0-7.3"/>
		</g>
		<g id="g1256" transform="translate(341.2608,369.9794)">
			<path id="path1258" inkscape:connector-curvature="0" class="st19" d="M450.7-239.1c0,0.2,0,0.4,0,0.5c-0.5,0.1-0.7-0.2-0.8-0.8
				c0.2,0,0.6-0.1,0.8-0.1c0-0.2,0.1-0.5,0-0.7v0.5"/>
		</g>
		<g id="g1260" transform="translate(341.1808,367.0193)">
			<path id="path1262" inkscape:connector-curvature="0" class="st19" d="M450.3-256.8c1.1,0.3,1.6,1.1,1.4,2.2
				c-0.2,0-0.3,0.1-0.5,0.1c-0.5,0.7,0,1.6-0.1,2.5"/>
		</g>
		<g id="g1264" transform="translate(342.9008,367.6994)">
			<path id="path1266" inkscape:connector-curvature="0" class="st19" d="M460.6-252.8c-0.8-1.1-0.6-3.2-0.6-4.5"/>
		</g>
		<path id="path1268" inkscape:connector-curvature="0" class="st5" d="M709.2,315.2h-3.3v43.3h3.3V315.2z"/>
		<g id="g1270" transform="translate(277.856,399.9969)">
			<path id="path1272" inkscape:connector-curvature="0" d="M70.3-59c0,8.9-0.1,10.4-3.6,10.8L65.3-48c-0.4,0.3-0.2,1.8,0.1,2.1
				c2.9-0.2,4.9-0.3,7.4-0.3c2.4,0,4.3,0.1,7.3,0.3c0.4-0.3,0.5-1.8,0.1-2.1l-1.5-0.2c-3.5-0.4-3.6-1.9-3.6-10.8v-30
				c0-8.9,0.1-10.1,3.6-10.7l1.5-0.3c0.4-0.3,0.2-1.9-0.1-2.1c-2.9,0.2-4.9,0.3-7.3,0.3c-2.5,0-4.5-0.1-7.4-0.3
				c-0.3,0.3-0.5,1.6-0.1,2.1l1.5,0.3c3.5,0.6,3.6,1.8,3.6,10.7V-59z"/>
		</g>
		<g id="g1274" transform="translate(281.7876,401.1308)">
			<path id="path1276" inkscape:connector-curvature="0" d="M93.9-52.2c1.6,0,2.1,0,2.3,0.3c0.1,0.1,0.1,0.4,0.1,1
				c0,2.2-2.1,4.4-5.4,4.4c-4.6,0-7.7-3.8-7.7-8.4c0-1.6,0.5-3.4,1.6-4.8c1.1-1.4,3.1-2.4,5.6-2.4c2,0,4.8,0.9,6,3.4
				c0,0.3-0.3,0.6-0.7,0.4c-1.2-1.4-2.3-1.8-3.5-1.8c-4.1,0-6.4,3.2-6.4,6.9c0,0.9,0,1,1,1H93.9z M86.5-51.1c-0.3,0-0.3,0.1-0.3,0.2
				c0,1.2,2,3.2,4.3,3.2c2.2,0,3-1.3,3-2.3c0-0.5-0.1-0.6-0.2-0.7c-0.3-0.2-1.2-0.4-4-0.4H86.5z"/>
		</g>
		<g id="g1278" transform="translate(280.7452,394.3158)">
			<path id="path1280" inkscape:connector-curvature="0" d="M87.6-93.1c0,1.3,0.9,2.2,2.1,2.2c1.3,0,2.1-1,2.1-2.2
				c0-1.2-0.8-2-2.1-2C88.6-95.1,87.6-94.3,87.6-93.1"/>
		</g>
		<g id="g1282" transform="translate(288.1648,393.6673)">
			<path id="path1284" inkscape:connector-curvature="0" d="M132.2-97c16.2,0,29.1,12.3,29.1,29.3c0,14.8-9.7,28.8-29.1,28.8
				c-17.3,0-29.9-12.9-29.9-29.7C102.3-83.6,113.5-97,132.2-97 M133.3-94.4c-16.5,0-22.6,16.1-22.6,28.6c0,18.4,11.3,24.4,20.1,24.4
				c16,0,22.2-15,22.2-28.8C152.9-86.8,143.3-94.4,133.3-94.4"/>
		</g>
		<g id="g1286" transform="translate(293.2168,399.9792)">
			<path id="path1288" inkscape:connector-curvature="0" d="M162.5-59.1c0,8.8-0.2,10.2-5.5,10.6l-2.1,0.2c-0.5,0.3-0.3,1.8,0.2,2.1
				c4.7-0.2,7.6-0.3,10.9-0.3c3.3,0,6.1,0.1,10.3,0.3c0.5-0.3,0.7-1.8,0.2-2.1l-2-0.2c-5-0.4-5.1-1.8-5.1-10.6v-29.2
				c0-5.3,0.3-7.5,1.8-9.1c0.9-0.9,2.5-1.9,9.2-1.9c7.1,0,8.9,0.3,10.2,1.1c1.7,1,3.9,4,5.5,8.3c0.5,0.4,2.1,0.1,2.1-0.5
				c0-0.9-2.4-9.5-3.5-11.8c-4.3,0.2-12.3,0.3-20.9,0.3H166c-3.5,0-6.2-0.1-10.9-0.3c-0.5,0.3-0.7,1.6-0.2,2.1l2.5,0.3
				c4.9,0.5,5,1.7,5,10.5V-59.1z"/>
		</g>
		<g id="g1290" transform="translate(314.3966,395.6592)">
			<path id="path1292" inkscape:connector-curvature="0" d="M289.6-85c0-8.8,0.2-9.9,5.5-10.5l2.3-0.3c0.5-0.4,0.3-1.8-0.2-2.1
				c-4.8,0.2-7.6,0.3-10.9,0.3c-3.5,0-6.6-0.1-10.2-0.3c-0.5,0.3-0.7,1.6-0.2,2.1l1.8,0.3c4.9,0.7,5,1.7,5,10.5v31
				c0,7.1-0.2,8.7-3.9,9l-3,0.3c-0.6,0.5-0.5,1.8,0.2,2.1c4.5,0.6,9.7,0.7,16.6,0.7c7,0,12.2-0.9,16.1-3.4c3.9-2.4,6.7-6.8,6.7-12.6
				c0-7.7-4.8-11.6-8.4-13.4c-3.7-1.8-8.1-2.5-11.6-2.5c-0.6,0.3-0.6,1.5-0.1,1.7c9.1,1.7,12.3,6.8,12.3,14.1
				c0,8.1-4.8,13.4-13.5,13.4c-4.5,0-4.5-0.3-4.5-3V-85z"/>
		</g>
		<g id="g1294" transform="translate(318.6571,399.9552)">
			<path id="path1296" inkscape:connector-curvature="0" d="M315.1-59.2c0,8.9-0.2,10.3-5.1,10.8l-2.1,0.2c-0.5,0.3-0.3,1.8,0.2,2.1
				c4.2-0.2,7.1-0.3,10.6-0.3c3.4,0,6.2,0.1,10.4,0.3c0.5-0.3,0.7-1.8,0.2-2.1l-2.1-0.2c-5-0.4-5.1-1.8-5.1-10.8v-29.9
				c0-8.9,0.2-10.1,5.1-10.7l2.1-0.3c0.5-0.3,0.3-1.8-0.2-2.1c-4.2,0.2-7.1,0.3-10.4,0.3c-3.5,0-6.4-0.1-10.6-0.3
				c-0.5,0.3-0.7,1.6-0.2,2.1l2.1,0.3c5,0.6,5.1,1.8,5.1,10.7V-59.2z"/>
		</g>
		<g id="g1298" transform="translate(326.5891,395.0112)">
			<path id="path1300" inkscape:connector-curvature="0" d="M362.7-88.9c0.7-2,1.1-3.5,1.1-4.5c0-0.8-1.2-1.3-2.9-1.5l-2.4-0.3
				c-0.6-0.4-0.5-1.8,0.2-2.1c2.4,0.1,5.6,0.3,9.7,0.3c3.8,0,6.7-0.1,10.2-0.3c0.4,0.3,0.6,1.7,0,2.1l-2.3,0.3
				c-3.6,0.4-4.7,1.7-7.1,8.9l-11.5,33.8c-1.3,3.7-2.6,7.6-3.7,11.3c-0.2,0.6-0.8,0.8-1.3,0.8c-0.9-1.1-2.4-2.6-4.4-3.2
				c0.3-1.3-0.3-2.9-1.4-6L338.2-72c-3.5-9.4-5.9-14.9-7.4-18.7c-1.2-3-3-3.9-5-4.1l-2.8-0.3c-0.5-0.4-0.3-1.8,0.2-2.1
				c2.3,0.1,5.3,0.3,8.1,0.3c3.9-0.1,6.6-0.1,8.7-0.3c0.8,0.3,0.8,1.7,0.2,2.1l-2.8,0.3c-2,0.2-2.4,0.7-2.4,1.7c0,0.9,0.6,3.2,1.8,7
				l2.9,8.8c0.6,1.8,1.1,2,3.2,2h12.7c2.5,0,2.9-0.3,3.4-2.1L362.7-88.9z M347.7-55.4c0.9,2.5,1.8,4.5,2,5h0.2
				c0.5-1,1.3-3.3,1.9-5.3l4.5-13.7c0.8-2.3,0.6-2.6-1.8-2.6h-10.3c-2.4,0-2.4,0.1-1.8,2L347.7-55.4z"/>
		</g>
		<g id="g1302" transform="translate(330.1022,395.6592)">
			<path id="path1304" inkscape:connector-curvature="0" d="M383.8-85c0-8.8-0.2-9.8-4.6-10.5l-1.8-0.3c-0.5-0.5-0.3-1.8,0.1-2.1
				c3.6,0.2,6.4,0.3,9.6,0.3c2.7,0,7.6-0.7,12.5-0.7c5.9,0,12.2,1.1,17.2,4c8.7,5.2,13.4,14.4,13.4,25c0,11.1-5.2,20.7-15.6,24.8
				c-5,2-10.4,2.5-16.9,2.5c-6.5,0-12.7-0.3-19.2-0.7c-0.8-0.3-0.7-1.7-0.1-2.1l1.7-0.3c3.2-0.5,3.6-2.3,3.6-8.1V-85z M390.1-52.1
				c0,3.8,0.2,5.9,0.8,6.4c0.6,0.5,3.1,1.2,7.6,1.2c20.1,0,24.2-15.6,24.2-24.9c0-15.6-6.7-26.3-21.5-26.3c-4.8,0-7.7,0.8-9.4,3.4
				c-1.3,2-1.5,4.7-1.5,9.2C390.1-83.1,390.1-52.1,390.1-52.1z"/>
		</g>
		<g id="g1306" transform="translate(337.3888,399.9792)">
			<path id="path1308" inkscape:connector-curvature="0" d="M427.5-59.1c0,8.7-0.2,10-5.1,10.6l-1.3,0.2c-0.5,0.3-0.3,1.8,0.2,2.1
				c3.6-0.2,6.5-0.3,9.9-0.3h15.8c5.4,0,10.3,0,11.3,0.3c0.5-1.4,1-7.5,1.3-11.2c-0.3-0.5-1.7-0.7-2.1-0.2c-1.3,3.9-2,6.9-6.4,8
				c-1.8,0.4-4.5,0.5-8.1,0.5h-6c-2.5,0-2.5-0.2-2.5-3.4v-16.8c0-2.4,0.3-2.4,2.8-2.4h4.9c3.5,0,6.1,0.2,7.1,0.5
				c1,0.3,1.6,0.8,2,2.9l0.7,3.4c0.4,0.5,1.8,0.5,2.2-0.1c0-2-0.3-5.3-0.3-8.5c0-3,0.3-6.2,0.3-8.1c-0.3-0.6-1.8-0.6-2.2-0.1
				l-0.8,3.3c-0.3,1.5-0.9,2.8-2.6,3.2c-1.2,0.3-3.2,0.4-6.5,0.4h-4.9c-2.5,0-2.8-0.1-2.8-2.3v-11.8c0-4.5,0.3-7.3,1.6-8.7
				c1-1,2.8-1.9,10.2-1.9c6.5,0,8.9,0.3,10.8,1.3c1.5,0.8,3.8,3.8,6,8.1c0.6,0.4,1.8,0.2,2.1-0.6c-0.6-2.9-2.7-9.4-3.8-11.7
				c-7.6,0.2-15,0.3-22.5,0.3h-7.6c-3.6,0-6.5-0.1-11.4-0.3c-0.5,0.3-0.7,1.6-0.2,2.1l2.8,0.3c4.8,0.4,5.2,1.7,5.2,10.5V-59.1z"/>
		</g>
		<g id="g1310" transform="translate(348.9809,395.6592)">
			<path id="path1312" inkscape:connector-curvature="0" d="M497.1-85c0-8.8,0.2-9.9,5.5-10.5l2.3-0.3c0.5-0.4,0.3-1.8-0.2-2.1
				c-4.8,0.2-7.6,0.3-10.9,0.3c-3.5,0-6.6-0.1-10.2-0.3c-0.5,0.3-0.7,1.6-0.2,2.1l1.8,0.3c4.9,0.7,5,1.7,5,10.5v31
				c0,7.1-0.2,8.7-3.9,9l-3,0.3c-0.6,0.5-0.5,1.8,0.2,2.1c4.5,0.6,9.7,0.7,16.6,0.7c7,0,12.2-0.9,16.1-3.4c3.9-2.4,6.7-6.8,6.7-12.6
				c0-7.7-4.8-11.6-8.4-13.4c-3.7-1.8-8.1-2.5-11.6-2.5c-0.6,0.3-0.6,1.5-0.1,1.7c9.1,1.7,12.3,6.8,12.3,14.1
				c0,8.1-4.8,13.4-13.5,13.4c-4.5,0-4.5-0.3-4.5-3V-85z"/>
		</g>
		<g id="g1314" transform="translate(356.5432,395.0112)">
			<path id="path1316" inkscape:connector-curvature="0" d="M542.4-88.9c0.7-2,1.1-3.5,1.1-4.5c0-0.8-1.2-1.3-2.9-1.5l-2.4-0.3
				c-0.6-0.4-0.5-1.8,0.2-2.1c2.4,0.1,5.6,0.3,9.7,0.3c3.8,0,6.7-0.1,10.2-0.3c0.4,0.3,0.6,1.7,0,2.1l-2.3,0.3
				c-3.6,0.4-4.7,1.7-7.1,8.9l-11.5,33.8c-1.3,3.7-2.6,7.6-3.7,11.3c-0.2,0.6-0.8,0.8-1.3,0.8c-0.9-1.1-2.4-2.6-4.4-3.2
				c0.3-1.3-0.3-2.9-1.4-6L517.9-72c-3.5-9.4-5.9-14.9-7.4-18.7c-1.2-3-3-3.9-5-4.1l-2.8-0.3c-0.5-0.4-0.3-1.8,0.2-2.1
				c2.3,0.1,5.3,0.3,8.1,0.3c3.9-0.1,6.6-0.1,8.7-0.3c0.8,0.3,0.8,1.7,0.2,2.1l-2.8,0.3c-2,0.2-2.4,0.7-2.4,1.7c0,0.9,0.6,3.2,1.8,7
				l2.9,8.8c0.6,1.8,1.1,2,3.2,2h12.7c2.5,0,2.9-0.3,3.4-2.1L542.4-88.9z M527.4-55.4c0.9,2.5,1.8,4.5,2,5h0.2
				c0.5-1,1.3-3.3,1.9-5.3l4.5-13.7c0.8-2.3,0.6-2.6-1.8-2.6h-10.3c-2.4,0-2.4,0.1-1.8,2L527.4-55.4z"/>
		</g>
		<g id="g1318" transform="translate(360.3831,395.6592)">
			<path id="path1320" inkscape:connector-curvature="0" d="M565.5-85c0-8.8-0.2-9.9-5-10.5l-2.1-0.3c-0.5-0.6-0.3-1.8,0.2-2.1
				c3.9,0.2,7,0.3,10.5,0.3c3.4,0,6.2-0.1,10-0.3c0.5,0.3,0.7,1.7,0.2,2.1l-1.8,0.3c-4.9,0.7-5,1.7-5,10.5v10.6
				c0,1.8,0.2,1.8,3.9,1.8c3.4,0,4.7-0.8,6-2.7c2.6-3.8,6-9.6,8.2-12.7c6-8.5,10.2-10.6,17.4-10.6c1.6,0,2.9,0.2,3.7,0.4
				c0.4,0.3,0.3,1-0.1,1.2c-2.3,0.2-4.4,1.1-5.8,2.4c-5.7,4.8-10.2,11.5-16.9,22.3c-0.4,0.7-0.8,1.5-0.4,2c4.2,1.7,10.5,6,10.5,14
				c0,5.9-2.9,9.7-7,11.8c-3.9,2.1-8.8,2.5-14,2.5c-8.2,0-14-0.3-18.7-0.7c-0.7-0.3-0.7-1.7-0.1-2.1l2.7-0.3
				c3.4-0.4,3.7-1.8,3.7-9.8V-85z M572.4-47.2c0,2.4,0.3,2.7,5.5,2.7c9.3,0,13.4-6.3,13.4-12.9c0-5.7-1.9-8.7-4.2-10.4
				c-2.4-1.8-5.6-2.2-8.7-2.2c-4.3,0-5.5,0.2-5.8,0.4c-0.3,0.3-0.3,1.3-0.3,2.8V-47.2z"/>
		</g>
		<g id="g1322" transform="translate(368.363,399.9552)">
			<path id="path1324" inkscape:connector-curvature="0" d="M613.4-59.2c0,8.9-0.2,10.3-5.1,10.8l-2.1,0.2c-0.5,0.3-0.3,1.8,0.2,2.1
				c4.2-0.2,7.1-0.3,10.6-0.3c3.4,0,6.2,0.1,10.4,0.3c0.5-0.3,0.7-1.8,0.2-2.1l-2.1-0.2c-5-0.4-5.1-1.8-5.1-10.8v-29.9
				c0-8.9,0.2-10.1,5.1-10.7l2.1-0.3c0.5-0.3,0.3-1.8-0.2-2.1c-4.2,0.2-7.1,0.3-10.4,0.3c-3.5,0-6.4-0.1-10.6-0.3
				c-0.5,0.3-0.7,1.6-0.2,2.1l2.1,0.3c5,0.6,5.1,1.8,5.1,10.7V-59.2z"/>
		</g>
		<g id="g1326" transform="translate(372.8509,393.6673)">
			<path id="path1328" inkscape:connector-curvature="0" d="M640.3-97c-7.1,0-11.5,2.2-13.1,3.1c-1,1.8-2.1,7.8-2.3,11.8
				c0.4,0.6,1.7,0.8,2,0.3c1.3-4.3,4.7-12.5,14.4-12.5c7.1,0,10.5,4.6,10.5,9.7c0,3.7-0.8,7.8-6.9,11.8l-8,5.2
				c-4.2,2.8-9.1,7.6-9.1,14.4c0,8,6.2,14.4,17.1,14.4c2.6,0,5.6-0.4,7.8-1.1c1.1-0.3,2.3-0.5,2.9-0.5c0.8-2,1.5-6.7,1.5-10.2
				c-0.3-0.5-1.7-0.8-2.1-0.3c-1.1,4-3.4,9.5-11.4,9.5c-8.2,0-10-5.5-10-9.3c0-4.9,4-8.3,7.1-10.3l6.7-4.2
				c5.3-3.3,10.5-8.1,10.5-16.1C658.2-90.7,651.2-97,640.3-97"/>
		</g>
		<g id="g1330" transform="translate(377.6959,398.5479)">
			<path id="path1332" inkscape:connector-curvature="0" d="M669.4-67.7c0,4.6-0.2,6.1-3.6,6.4l-3.6,0.3c-0.6,0.3-0.7,1.2-0.1,1.5
				c6.4,1,10.5,2.8,12.5,3.9c0.3,0,0.6-0.1,0.8-0.3c-0.1-1.2-0.3-4.6-0.3-8.5v-26.3c0-5.2,0.2-6.4,3.3-6.6l3.2-0.2
				c0.5-0.4,0.4-1.5-0.1-1.7c-3,0.1-6.4,0.2-9,0.2c-2.7,0-6.1-0.1-9.1-0.2c-0.5,0.2-0.6,1.3-0.1,1.7l3.1,0.2
				c3.2,0.2,3.2,1.4,3.2,6.6V-67.7z"/>
		</g>
		<g id="g1334" transform="translate(379.9408,396.2193)">
			<path id="path1336" inkscape:connector-curvature="0" d="M682.8-81.6c0-13,5.9-14.1,8.3-14.7c3.5-0.8,6.8,3.1,7.7,3.4
				c0.3-0.2-0.1-2.9-0.3-3.2c-1.5-1.3-5.2-2.5-8.1-2.5c-6.1,0-13.4,7-13.4,14.8c0,9.1,5.3,17.4,13.6,18.3c9.4,1,15-8.2,15-19.3
				c0-8.2-3.4-18.1-11.1-24.9c-5.6-5-12.9-7.8-18-8.7c-0.6,0.2-0.8,1.4-0.5,1.7c4.5,1.4,8.3,3.2,11.2,5.3c7,5.1,11.6,12.9,11.6,27.2
				c0,6.9-0.6,16.4-7.9,16.4C686.1-67.9,682.8-74.9,682.8-81.6"/>
		</g>
		<g id="g1338" transform="translate(386.9272,395.6401)">
			<path id="path1340" inkscape:connector-curvature="0" d="M724.7-85.1c-0.7,0-1.1,0.5-1.1,1.3c0,0.9,0.3,1.4,1.4,2.9
				c0,0,17.1,28.7,17.8,28.7c0,0,1.3-0.1,5.7-0.1l-19.5-28.4c-0.9-1.2,0.1-1.2,2.1-1.2h11.7c1.8,0,2.1,0.2,2.1,2v13.9
				c0,0.5-0.4,13.7,0.3,13.7c1.7,0,5,0.1,5,0.1s0.3-11.8,0.3-13.4v-14.6c0-1.4,0.2-1.7,1.5-1.7l3.4,1.2l2.9,2.9c0,0,1.3,0.7,0.9-1.2
				c-0.3-1.6-2.1-5.9-2.4-6.2h-4.1c-1.9,0-2.3-0.1-2.3-1.7v-3.4c0-6,0.1-7,3.2-7.3l2-0.2c0.5-0.5,0.4-1.7-0.2-1.9
				c-2.7,0.2-5.5,0.2-7.9,0.2c-2.7,0-6.1-0.1-9.4-0.2c-0.5,0.2-0.6,1.4-0.2,1.9l3.4,0.2c3.2,0.2,3.4,1.5,3.4,7.3v3.2
				c0,1.8-0.2,1.9-2.2,1.9H724.7z"/>
		</g>
		<g id="g1342" transform="translate(296.2813,389.725)">
			<path id="path1344" inkscape:connector-curvature="0" d="M180.9-120.6c-0.4-1.3-1.7-5.4-7.8-5.4c-5.1,0-8.6,3.3-8.6,8.6
				c0,4.7,2.7,8.8,8.8,8.8c1.1,0,3.7-0.1,5.8-1.9c1-0.8,1.4-1.8,1.8-3l-3.8-0.8c-0.5,1.8-2,2.8-4,2.8c-4.7,0-4.7-4.6-4.7-5.7
				c0-1.6,0.2-3.1,1-4.2c0.7-0.9,2-1.6,3.6-1.6c2.5,0,3.7,1.7,4.2,3.5L180.9-120.6z"/>
		</g>
		<g id="g1346" transform="translate(297.0834,390.1786)">
			<path id="path1348" inkscape:connector-curvature="0" d="M185.7-117.9c0-3.9,2.1-8.6,9.2-8.6c6.6,0,9.1,4.3,9.1,8.7
				c0,4.9-3,8.7-9.1,8.7C188.9-109.1,185.7-112.5,185.7-117.9 M189.6-117.8c0,2.5,0.9,5.8,5.2,5.8c4.6,0,5.2-3.8,5.2-5.7
				c0-4.9-3.2-5.8-5.2-5.8c-2.3,0-3.6,1.1-4.3,2.1C190.1-120.8,189.6-119.7,189.6-117.8"/>
		</g>
		<path id="path1350" inkscape:connector-curvature="0" d="M528,280.8h3.8V264H528V280.8z"/>
		<g id="g1352" transform="translate(305.6807,390.9884)">
			<path id="path1354" inkscape:connector-curvature="0" d="M237.3-113h-5.6v2.8h15v-2.8h-5.6v-14h-3.8V-113z"/>
		</g>
		<g id="g1356" transform="translate(308.7837,392.0435)">
			<path id="path1358" inkscape:connector-curvature="0" d="M255.9-106.7h4l-3.5-3.4h-2.3L255.9-106.7z M249.2-111.2h14v-2.8H253
				v-3.7h9.5v-2.8H253v-4.6h10.5v-2.8h-14.3C249.2-128.1,249.2-111.2,249.2-111.2z"/>
		</g>
		<g id="g1360" transform="translate(312.7968,390.1783)">
			<path id="path1362" inkscape:connector-curvature="0" d="M280-117.9c0-3.8,2.1-8.5,9.4-8.5c6.8,0,9.3,4.2,9.3,8.5
				c0,4.8-3.1,8.6-9.4,8.6C283.3-109.2,280-112.6,280-117.9 M284-117.8c0,2.4,0.9,5.7,5.3,5.7c4.8,0,5.3-3.8,5.3-5.7
				c0-4.8-3.3-5.7-5.3-5.7c-2.4,0-3.7,1.1-4.4,2.1C284.5-120.7,284-119.7,284-117.8"/>
		</g>
		<g id="g1364" transform="translate(316.3846,391.3764)">
			<path id="path1366" inkscape:connector-curvature="0" d="M301.5-110.7h3.9v-13.8h9.7v-2.8h-13.6V-110.7z"/>
		</g>
		<g id="g1368" transform="translate(319.46,390.003)">
			<path id="path1370" inkscape:connector-curvature="0" d="M319.9-118.9l-7.1,9.6h4.6l4.5-6.6l4.5,6.6h4.5l-7.1-9.6v-7h-3.9V-118.9
				z"/>
		</g>
		<g id="g1372" transform="translate(342.224,391.3751)">
			<path id="path1374" inkscape:connector-curvature="0" d="M456.5-110.7h13v-2.8h-9.2v-4h7.9v-2.8h-7.9v-7.2h-3.8V-110.7z"/>
		</g>
		<g id="g1376" transform="translate(344.9834,388.9694)">
			<path id="path1378" inkscape:connector-curvature="0" d="M473.1-125.1h3.8v7h0.8c2.6,0,2.8-0.3,5.1-3.4l2.7-3.7h4.6l-2.3,3.3
				c-1.9,2.7-2.6,3.3-4.2,4.1v0c0.7,0.1,1.5,0.3,2.1,0.5c1.8,0.7,2.9,2.3,2.9,4.1c0,1.7-0.9,3.6-3.1,4.3c-0.6,0.2-1.5,0.4-4.3,0.4
				h-8V-125.1z M476.9-111.2h3c2.6,0,3,0,3.8-0.4c0.7-0.4,1-1,1-1.7c0-0.5-0.1-1.6-1.5-2c-0.7-0.2-2.3-0.2-3.4-0.2h-2.8
				C476.9-115.4,476.9-111.2,476.9-111.2z"/>
		</g>
		<g id="g1380" transform="translate(350.5967,388.9694)">
			<path id="path1382" inkscape:connector-curvature="0" d="M506.8-125.1l-7.6,16.8h-4l-7.4-16.8h4.1l1.6,3.8h7.6l1.6-3.8H506.8z
				 M494.5-118.5l2.6,6.3l2.6-6.3C499.7-118.5,494.5-118.5,494.5-118.5z"/>
		</g>
		<g id="g1384" transform="translate(351.3516,391.3751)">
			<path id="path1386" inkscape:connector-curvature="0" d="M511.3-110.7h3.7l7.7-11.2h0.1v11.2h3.5v-16.8h-3.8l-7.6,11h0v-11h-3.5
				V-110.7z"/>
		</g>
		<g id="g1388" transform="translate(355.7078,388.9224)">
			<path id="path1390" inkscape:connector-curvature="0" d="M537.4-125.4c2.3-0.2,2.8-1.3,2.8-2.1c0-1.6-1.9-2.5-4.6-2.5
				c-0.1,0-1.7,0-2.4,0.2v1.4c1.2-0.1,1.3-0.1,2.1-0.1c1,0,2.4,0.1,2.4,1.1c0,0.3-0.3,1-1.6,1c-0.6,0-1.3-0.1-1.7-0.2l0.3,1.1
				c0.7,0.2,1.2,0.3,1.8,0.3v0v0c-4.6,0-8.2,3.3-8.2,8.6c0,4.7,2.7,8.8,8.8,8.8c1.1,0,3.7-0.1,5.8-1.9c1-0.8,1.4-1.8,1.8-3l-3.8-0.8
				c-0.5,1.8-2,2.8-4,2.8c-4.7,0-4.7-4.6-4.7-5.7c0-1.6,0.2-3.2,1-4.2c0.7-0.9,2-1.7,3.6-1.7c2.5,0,3.7,1.7,4.2,3.6l3.7-1
				C544.4-121.4,542.8-125.4,537.4-125.4L537.4-125.4z"/>
		</g>
		<g id="g1392" transform="translate(360.132,388.9694)">
			<path id="path1394" inkscape:connector-curvature="0" d="M564-125.1l-7.6,16.8h-4l-7.4-16.8h4.1l1.6,3.8h7.6l1.6-3.8H564z
				 M551.8-118.5l2.6,6.3l2.6-6.3C556.9-118.5,551.8-118.5,551.8-118.5z"/>
		</g>
		<path id="path1396" inkscape:connector-curvature="0" d="M929.1,280.7h3.8v-16.8h-3.8V280.7z"/>
		<g id="g1398" transform="translate(362.7857,389.7959)">
			<path id="path1400" inkscape:connector-curvature="0" d="M579.9-120.2c0.2-0.9,0.7-3.2,4.1-3.2c2.7,0,3.7,1.2,3.7,2.3
				c0,1.4-1.3,1.7-4.8,2.5c-1.9,0.4-6,1.3-6,5.1c0,1.8,1.3,4.7,6.9,4.7c3.7,0,7.1-1.3,7.2-5.1l-3.8-0.1c-0.2,0.9-0.4,2.4-3.5,2.4
				c-1.1,0-3.2-0.3-3.2-1.7c0-1.1,1.2-1.6,4.2-2.2c2.9-0.6,6.8-1.4,6.8-5.6c0-2-1.5-3.8-3.1-4.4c-1.7-0.7-3.6-0.8-4.5-0.8
				c-2,0-7.1,0.2-7.8,5.8L579.9-120.2z"/>
		</g>
		<g id="g1402" transform="translate(325.2086,388.9594)">
			<path id="path1404" inkscape:connector-curvature="0" d="M354.4-125.2h3.7v6.3h2.5c1.7,0,3.7,0,5,0.6c1.2,0.5,3,1.8,3,4.7
				c0,2.8-1.7,4.1-2.9,4.7c-1,0.4-2,0.5-5.3,0.5h-6V-125.2z M360-111.2c2.2,0,3.1,0,3.9-0.7c0.7-0.5,0.9-1.1,0.9-1.7
				c0-2.4-2.6-2.4-4.5-2.4h-2.1v4.8C358.2-111.2,360-111.2,360-111.2z"/>
		</g>
		<path id="path1406" inkscape:connector-curvature="0" d="M699.8,280.6h3.7v-16.8h-3.7V280.6z"/>
		<g id="g1408" transform="translate(332.1463,389.0602)">
			<path id="path1410" inkscape:connector-curvature="0" d="M396.1-124.6c-1.6,0.5-2.6,1.2-3,1.4c0.7,0.8,2.3,2.4,2.3,6.3
				c0,5-3,8.7-9,8.7c-5.8,0-9-3.4-9-8.7c0-4.6,2.4-8.7,9.1-8.7c1.9,0,3.4,0.5,4,0.7c0.1,0,0.5-0.3,0.7-0.4c1.4-0.9,2.1-1.3,3.5-1.7
				L396.1-124.6z M385.5-121.5c0.9-0.3,1.9-0.8,2.3-1.1c-0.3,0-0.6-0.1-1.4-0.1c-1.9,0-5.2,0.8-5.2,5.8c0,1.2,0.2,5.8,5.1,5.8
				c4.2,0,5.1-3.4,5.1-5.8c0-2.8-1-3.9-1.4-4.4c-0.9,0.6-2.1,1.3-3.5,1.7L385.5-121.5z"/>
		</g>
		<g id="g1412" transform="translate(333.4213,391.3651)">
			<path id="path1414" inkscape:connector-curvature="0" d="M403.7-110.8v-9.1c0-2,0-2.8,0.5-3.6c0.7-1.2,2.1-1.5,3.3-1.5
				c3.6,0,3.6,2,3.6,4.9v9.3h3.7v-8.8c0-3-0.1-4.7-1-5.9c-1.4-2-4.1-2.3-6.2-2.3c-7.6,0-7.6,4.3-7.6,8.1v9H403.7z"/>
		</g>
		<g id="g1416" transform="translate(336.0067,391.3651)">
			<path id="path1418" inkscape:connector-curvature="0" d="M419.2-110.8H433v-2.8h-10v-3.7h9.3v-2.8H423v-4.6h10.4v-2.8h-14.1
				V-110.8z"/>
		</g>
		<g id="g1420" transform="translate(299.7834,388.9793)">
			<path id="path1422" inkscape:connector-curvature="0" d="M201.9-125.1c0.4,0.9,4.6,15.1,5.4,16.9l1.6,0c1.1-1.9,3.8-8,4.5-9.1
				c0.8,1.3,4.4,7.7,5.1,9.2h1.8c1-2.8,5.1-15.2,5.8-16.9H222c-0.7,1.7-3.4,9.4-3.6,9.9c-0.5-0.7-3.7-6.1-5.1-8h-0.1
				c-1.5,2.5-4,7-4.4,7.9h0c-0.4-1-3.1-8.8-3.4-9.8H201.9z"/>
		</g>
		<g id="g1424" transform="translate(321.0909,389.0113)">
			<path id="path1426" inkscape:connector-curvature="0" d="M329.7-124.9c0.4,0.9,5.5,15.3,6.3,17.2h0.2c1-1.9,4.7-8.4,5.3-9.5
				c0.8,1.3,4.5,7.6,5.4,9h0.2c1.2-2.7,6.2-15,7-16.7h-4.1c-0.7,1.7-3.4,9.4-3.6,9.9c-0.5-0.7-3.7-6.1-5.1-8h-0.1
				c-1.5,2.5-4,7-4.4,7.9h0c-0.4-1-3.1-8.8-3.4-9.8H329.7z"/>
		</g>
		<g id="g1428" transform="translate(298.3361,394.2235)">
			<path id="path1430" inkscape:connector-curvature="0" d="M193.2-93.6c0,2.4,1.9,3.5,4.1,3.5h2c1.7,0,2.7,0.6,3.4,1.6
				c3,4,5.1,7.7,6,9.8c0.3,0.7,1,2.5,1,3.8c0,1.8-0.4,2.8-1.8,6.1l-8.1,18.8c-1.8,4.1-2.5,6.2-6.1,6.9l-2.6,0.4
				c-0.6,0.4-0.5,1.9,0.3,2.2c3.3-0.2,6.4-0.3,9.8-0.3c2.8,0,5.7,0.1,9,0.3c0.8-0.3,0.9-1.8,0.2-2.2l-2.6-0.4
				c-1.4-0.3-2.3-0.5-2.3-1.1c0-1.1,2.4-6.8,3-8.3l3.3-8.1c0.6-1.4,2.6-6.1,3-6.3c0.3,0.2,2,2.9,3.8,6.5l3.5,7
				c2.3,4.6,3.6,7.8,3.6,8.8c0,0.6-0.6,1.2-2.5,1.5l-3.2,0.4c-0.7,0.4-0.6,1.9,0.2,2.2c3.3-0.2,6.4-0.3,9.1-0.3c2.6,0,5,0.1,7.9,0.3
				c0.8-0.4,0.9-1.7,0.2-2.2L236-43c-3.4-0.5-5.3-3.1-8.8-9.3l-5.8-10.1c-3.4-5.9-11.9-21.2-17-30.8c-1.8-3.3-4.2-4.1-6.6-4.1
				C194.7-97.4,193.2-95.8,193.2-93.6"/>
		</g>
		<g id="g1432" transform="translate(385.0607,397.7393)">
			<path id="path1434" inkscape:connector-curvature="0" d="M713.5-72.5c0,0-6.5-4.7-11.5-0.1c-2.8,2.5-2.6,7.5-1.7,11.2
				c2.2,9.2,25.9,15.8,26.6-8.3c0,0,1-11.2-11.1-20.9l-3.9-3.2c0,0-0.8-2.1,4.3-3.1c5.2-1,6.2-0.8,7.7,0.4c1.6,1.3,2.1,3.5,2.1,3.5
				s2.4,2.7,1.1-1.4c0,0-0.7-5.7-8-6.9c0,0-2.2-1.3-10.1,2.2c0,0-1.7,1.7-5.6,0.1c0,0-4.2-1.1-1,0.8c3.2,2,11.2,5.7,14.7,13.6
				c0,0,7.1,14.6,2.8,22.1c0,0-3.2,9.9-12.6,4.2c0,0-4.6-3.1-4.1-8.4c0.6-5.2,7-5,8.8-4.3C712.3-70.8,714.7-69.6,713.5-72.5"/>
		</g>
		<g id="g1436" transform="translate(315.5226,368.6957)">
			<path id="path1438" inkscape:connector-curvature="0" class="st2" d="M296.3-246.8c0,0,8.1-13.1,17.7-13.4"/>
		</g>
		<g id="g1440" transform="translate(315.4305,368.12)">
			<path id="path1442" inkscape:connector-curvature="0" class="st2" d="M295.8-250.2c0,0,1.9-8.4,8.4-9.7"/>
		</g>
		<g id="g1444" transform="translate(304.4696,394.1243)">
			<path id="path1446" inkscape:connector-curvature="0" d="M230-94.2l2.6-0.1c0.4-0.5,0.5-2,0-2c-2.1,0-4.8,0-7.1,0
				c-1.9,0-3.5,0-5.7,0c-0.5,0-0.5,1.7-0.1,2.1l1.5,0.1c0,0,2.2-0.2,2.8,1.9c0.9,3.5,10.8,45.7,11.6,48.5c0.5,1.9-0.4,1.9-0.5,2
				c-1.2,0-2.5,0-2.5,0s-0.9,1.5,0.7,1.5c1.5,0,9.7,0.1,12.9,0.1c0.8,0,0.7-1.2,0-1.2c-2.7,0-1.6-1.7-1.1-2.8l6.8-19.1
				c0,0,1-2.7,2.4,0.5c1.5,3.5,7.7,20.6,7.7,20.6s0.7,0.7-1.1,0.7c-0.6,0-1.7,0-2.2,0c-0.7,0-0.7,1.4-0.1,1.4c1.1,0,11.1,0,14.8,0
				c0.6,0,0.6-1.3,0.3-1.3c-0.8,0-2.4-0.1-3.2-0.1c-0.7,0-0.4-0.9-0.2-2.7c0.3-1.7,10.5-47.9,10.5-47.9s0.2-1.9,1.6-1.9
				c0.6,0,1.3,0,2-0.1c1.2,0,0.8-2.1-0.2-2.1h-14.4c-1.5,0-1.1,2.1-0.2,2.1c1.5,0,3.2,0,3.7,0.4c0.5,0.4,0.7,1.2,0.4,2.6
				c-0.3,1.1-9,40.6-9.4,42.4c-0.9,4.6-1.5,1.9-2.5-1.3c-1.8-5.7-8.3-24-8.3-24s-1.6-4.7-3.3-0.1c-1.7,4.6-10.7,25.5-10.7,25.5
				s-1,3.3-1.9,0.5l-9.6-36.6C224.7-95.3,230-94.2,230-94.2"/>
		</g>
		<g id="g1448" transform="translate(329.6083,391.3644)">
			<path id="path1450" inkscape:connector-curvature="0" class="st5" d="M380.8-110.8l1.7-3.8l-4.3,0.4l-1.8,4L380.8-110.8z
				 M370.2-108.2l-1.7,3.9l4.2-0.5l1.7-3.8C374.5-108.7,370.2-108.2,370.2-108.2z M374-104.3l2.6,3.5l1.7-3.9l-2.6-3.5L374-104.3z
				 M379.3-105.4l4.3-0.5l-2.5-3.4l-4.4,0.3L379.3-105.4z M377.1-114.8l-2.6-3.5l-1.8,3.9l2.7,3.6
				C375.4-110.7,377.1-114.8,377.1-114.8z M381.8-109.5l3,4.1l-5,0.6l2.8,3.7l0.3,0.4c0.1,0.2-0.4,0.3-0.4,0.4l-0.3,0.1l-0.3,0.3
				c-0.2,0.2-0.4,0.3-0.4,0.2c-0.1-0.1-0.1-0.2-0.3-0.4l-2.5-3.9l-2,4.6l-3-4.1l-1.8,4.2c0,0-0.2,0.4-0.2,0.5
				c-0.2,0.1-0.4-0.2-0.5-0.2l-0.2-0.2l-0.4-0.1c-0.1,0-0.3,0-0.4-0.1c-0.1-0.1,0.1-0.5,0.2-0.5l2-4.1l-4.9,0.5l1.9-4.6l-4.5,0.7
				c0,0-0.5,0.1-0.6,0c-0.1-0.1,0-0.4,0-0.6l0-0.3l-0.1-0.4c0-0.1-0.1-0.3,0-0.4c0.1-0.1,0.4-0.1,0.5-0.1l4.5-0.3l-3-4.1l5-0.5
				l-2.9-3.5l-0.3-0.4c-0.1-0.2,0.4-0.4,0.5-0.4l0.2-0.1l0.3-0.3c0.2-0.2,0.4-0.3,0.4-0.2c0.1,0.1,0.1,0.2,0.3,0.4l2.5,3.8l2-4.7
				l3,4.1l1.7-4.2c0-0.1,0.1-0.4,0.2-0.5c0.1-0.1,0.4,0.2,0.5,0.2l0.2,0.1l0.4,0.1c0,0,0.3,0.1,0.4,0.1c0.1,0.1-0.1,0.5-0.2,0.5
				l-2,4.1l5-0.5l-2,4.5l4.5-0.5c0.1,0,0.5-0.1,0.6,0c0.1,0.1,0,0.4,0,0.6l0,0.3l0.1,0.4c0,0.1,0.1,0.4,0,0.4c-0.1,0.1-0.4,0-0.5,0
				C386.3-109.6,381.8-109.5,381.8-109.5z M371.7-113.6l-4.2,0.5l2.6,3.5l4.3-0.4C374.4-110,371.7-113.6,371.7-113.6z"/>
		</g>
		<g id="g1452" transform="translate(323.6487,391.3078)">
			<path id="path1454" inkscape:connector-curvature="0" class="st5" d="M345.1-111.1l2.7-3.3l-4.3-0.6l-2.7,3.5L345.1-111.1z
				 M334.1-111.2l-2.6,3.4l4.2,0.5l2.7-3.3C338.4-110.6,334.1-111.2,334.1-111.2z M336.8-106.4l1.7,4l2.6-3.4l-1.7-4.1L336.8-106.4z
				 M342.3-106.3l4.3,0.6l-1.6-3.9l-4.4-0.8C340.6-110.4,342.3-106.3,342.3-106.3z M342.4-115.9l-1.7-4.1l-2.7,3.4l1.7,4.2
				C339.8-112.4,342.4-115.9,342.4-115.9z M345.7-109.6l1.9,4.7l-5.1-0.6l1.8,4.2l0.2,0.4c0.1,0.2-0.4,0.2-0.5,0.3l-0.3,0.1
				l-0.3,0.2c-0.2,0.1-0.4,0.2-0.5,0.1c0-0.1-0.1-0.2-0.2-0.4l-1.5-4.4l-3.1,4l-1.9-4.7l-2.8,3.7c0,0-0.3,0.4-0.3,0.4
				c-0.2,0.1-0.4-0.3-0.5-0.3l-0.1-0.2l-0.3-0.2c-0.1,0-0.3-0.1-0.3-0.2c0-0.1,0.3-0.4,0.3-0.5l2.9-3.5l-4.9-0.7l3-4l-4.5-0.4
				c0,0-0.5,0-0.6-0.1c-0.1-0.2,0.1-0.4,0.1-0.6l0.1-0.3l0-0.4c0-0.1,0-0.4,0.1-0.4c0.2-0.1,0.4,0,0.6,0.1l4.4,0.8l-1.9-4.7l5,0.7
				l-2-4.1l-0.2-0.5c-0.1-0.2,0.5-0.3,0.6-0.3l0.3-0.1l0.4-0.2c0.2-0.1,0.4-0.2,0.5-0.1c0,0.1,0.1,0.2,0.2,0.5l1.5,4.3l3.1-4
				l1.9,4.7l2.7-3.7c0-0.1,0.2-0.4,0.3-0.4c0.2-0.1,0.4,0.3,0.5,0.3l0.2,0.2l0.4,0.2c0,0,0.3,0.1,0.3,0.2c0.1,0.2-0.3,0.4-0.3,0.5
				l-2.9,3.5l5,0.7l-3,3.9l4.5,0.6c0.1,0,0.5,0,0.6,0.2c0.1,0.1-0.1,0.4-0.1,0.6l-0.1,0.3l0,0.4c0,0.1,0,0.4-0.1,0.4
				c-0.1,0.1-0.5-0.1-0.5-0.1C350.1-108.6,345.7-109.6,345.7-109.6z M336.9-116l-4.2-0.6l1.7,4.1l4.3,0.7
				C338.6-111.9,336.9-116,336.9-116z"/>
		</g>
		<g id="g6695" transform="translate(275.56813,399.9969)">
			<path id="path6697" inkscape:connector-curvature="0" d="M56.6-59c0,8.9-0.1,10.4-3.6,10.8L51.5-48c-0.4,0.3-0.2,1.8,0.1,2.1
				c2.9-0.2,4.9-0.3,7.4-0.3c2.4,0,4.3,0.1,7.3,0.3c0.4-0.3,0.5-1.8,0.1-2.1L65-48.2c-3.5-0.4-3.6-1.9-3.6-10.8v-30
				c0-8.9,0.1-10.1,3.6-10.7l1.5-0.3c0.4-0.3,0.2-1.9-0.1-2.1c-2.9,0.2-4.9,0.3-7.3,0.3c-2.5,0-4.5-0.1-7.4-0.3
				c-0.3,0.3-0.5,1.6-0.1,2.1l1.5,0.3c3.5,0.6,3.6,1.8,3.6,10.7V-59z"/>
		</g>
		<g id="g6723" transform="translate(273.28026,399.9969)">
			<path id="path6725" inkscape:connector-curvature="0" d="M42.9-59c0,8.9-0.1,10.4-3.6,10.8L37.8-48c-0.4,0.3-0.2,1.8,0.1,2.1
				c2.9-0.2,4.9-0.3,7.4-0.3c2.4,0,4.3,0.1,7.3,0.3c0.4-0.3,0.5-1.8,0.1-2.1l-1.5-0.2c-3.5-0.4-3.6-1.9-3.6-10.8v-30
				c0-8.9,0.1-10.1,3.6-10.7l1.5-0.3c0.4-0.3,0.2-1.9-0.1-2.1c-2.9,0.2-4.9,0.3-7.3,0.3c-2.5,0-4.5-0.1-7.4-0.3
				c-0.3,0.3-0.5,1.6-0.1,2.1l1.5,0.3c3.5,0.6,3.6,1.8,3.6,10.7V-59z"/>
		</g>
	</g>
	<path id="path5951" inkscape:connector-curvature="0" class="st20" d="M652,169l0.1-15.5"/>
</g>
</svg>
